<svg xmlns="http://www.w3.org/2000/svg" width="30" height="20" fill="none"><path fill="#fff" d="M15.657 6.454c-1.469.208-2.752 1.587-2.764 1.6a.309.309 0 0 1-.062.05c-1.996 1.295-3.121.31-3.168.25-1.276-1.15-.105-3.077-.055-3.158a11.754 11.754 0 0 1 1.884-2.374h-5.42l-2.353 7.76a.286.286 0 0 1 .068.053c3.651 4.128 8.498 7.792 10.41 9.174a.977.977 0 0 0 1.262-1.485l-2.631-2.631a.31.31 0 1 1 .44-.437l1.4 1.4 1.24 1.24.62.636a1.187 1.187 0 0 0 1.692-1.664l-2.414-2.52-.459-.474a.31.31 0 0 1 .34-.508.31.31 0 0 1 .1.068l3.524 3.657a1.24 1.24 0 0 0 2.11-.828 1.206 1.206 0 0 0-.371-.908l-2.114-2.045-1.472-1.429a.31.31 0 1 1 .43-.443l4.185 4.05a1.165 1.165 0 1 0 1.596-1.695l-8.018-7.339ZM5.126 1.006A11.442 11.442 0 0 0 0 .008v12.155h1.894a.93.93 0 0 0 .895-.672l2.845-9.37a.93.93 0 0 0-.508-1.115Z"/><path fill="#fff" d="M16.661 1.608a2.91 2.91 0 0 0-2.095-.047c-1.187.434-2.92 1.475-4.441 3.961 0 .019-.951 1.55-.056 2.374.031.028.83.697 2.38-.291.223-.233 1.621-1.634 3.273-1.786a.31.31 0 0 1 .236.081l8.122 7.438c.038.034.072.071.106.109.93-.143 1.55-.992 1.73-1.302L22.97 4.12l-6.31-2.513Zm12.472-.122a13.701 13.701 0 0 0-5.164.973.93.93 0 0 0-.502 1.187l3.45 9.388a.951.951 0 0 0 .886.62h1.95V1.501a10.81 10.81 0 0 0-.62-.016Z"/></svg>