<svg xmlns="http://www.w3.org/2000/svg" width="23" height="24" fill="none"><path fill="#fff" d="m19.025 8.478-3.86 2.229c0-.04-.04-.12-.04-.16l-.24-.597 3.782-2.189c.04.279.199.518.358.717ZM7.682 9.95c-.12.24-.24.478-.319.757l-3.9-2.23c.159-.198.318-.437.398-.716l3.82 2.19ZM3.86 6.09c-.079-.239-.238-.477-.397-.676l5.492-3.185c.08.28.2.518.319.717L3.86 6.09ZM1.632 9.393c.12 0 .279 0 .398-.04v6.25c-.12-.04-.279-.04-.398-.04-.12 0-.279 0-.398.04v-6.25c.12 0 .239.04.398.04Zm2.707 9.751c-.08.24-.16.518-.24.796l-.676-.398c.16-.199.319-.438.398-.676l.518.278Zm3.741-4.378L3.9 17.194a1.841 1.841 0 0 0-.398-.716l4.22-2.428.358.716ZM11.662 3.98v3.86h-.796V3.98c.12.04.278.04.398.04s.278 0 .398-.04Zm7.402 1.433c-.159.199-.318.438-.398.676l-5.413-3.104c.16-.199.279-.478.319-.716l5.492 3.144Zm-.078 11.065c-.16.199-.319.438-.398.716l-4.14-2.428c.12-.239.24-.477.358-.716l4.18 2.428Zm.079 3.064-.637.398a3.033 3.033 0 0 0-.239-.796l.478-.278c.08.239.239.477.398.676Zm2.229-10.188v6.248c-.12-.04-.279-.04-.398-.04-.12 0-.279 0-.398.04V9.354c.119.04.278.04.398.04.119 0 .278-.04.398-.04ZM3.264 17.99c0 .916-.717 1.633-1.632 1.633A1.64 1.64 0 0 1 0 17.99a1.64 1.64 0 0 1 1.632-1.632 1.64 1.64 0 0 1 1.632 1.632Zm0-11.025a1.64 1.64 0 0 1-1.632 1.632A1.64 1.64 0 0 1 0 6.965a1.64 1.64 0 0 1 1.632-1.631c.875.04 1.632.756 1.632 1.631Zm9.632-5.333a1.64 1.64 0 0 1-1.632 1.632 1.614 1.614 0 0 1-1.632-1.632A1.64 1.64 0 0 1 11.264 0a1.64 1.64 0 0 1 1.632 1.632Zm9.632 5.333a1.64 1.64 0 0 1-1.632 1.632 1.614 1.614 0 0 1-1.632-1.632 1.64 1.64 0 0 1 1.632-1.631c.876.04 1.632.756 1.632 1.631Zm0 11.025a1.64 1.64 0 0 1-1.632 1.633 1.64 1.64 0 0 1-1.632-1.632 1.64 1.64 0 0 1 1.632-1.632 1.64 1.64 0 0 1 1.632 1.632ZM8.04 11.82a3.21 3.21 0 0 1 3.224-3.223c1.393 0 2.627.875 3.065 2.189.398 1.114.04 2.746-.836 3.94-.637.916-1.433 1.433-2.229 1.433-1.83 0-3.224-2.627-3.224-4.338Zm9.672 9.195v2.587a.399.399 0 0 1-.398.398h-12.1c-.239 0-.398-.16-.398-.398v-2.587c0-2.388 1.87-4.378 4.219-4.538h4.458c2.388.16 4.219 2.15 4.219 4.538Z"/></svg>