<svg xmlns="http://www.w3.org/2000/svg" width="50" height="50" fill="none"><path fill="#1A1A1A" d="M12.43 45.26h25.138l-.36 2.78a2.243 2.243 0 0 1-2.22 1.96H15.01c-1.12 0-2.08-.84-2.22-1.96l-.36-2.78ZM8.55 14.783l.36 2.84c.26-.06.5-.08.76-.08h30.658c.26 0 .52.02.76.08l.36-2.84H8.55Zm16.94 19.398c-1-1-1.26-1.84-1.46-2.5-.18-.58-.3-1.02-.94-1.64-.64-.66-1.08-.78-1.66-.96-.3-.1-.64-.2-1-.38-.58 1.64.04 3.86 1.72 5.54 1.08 1.06 2.38 1.74 3.7 1.9.94.12 1.759-.02 2.439-.42-.12-.04-.22-.08-.34-.12-.66-.2-1.48-.44-2.46-1.42Zm-1.94-7.579c-.66 0-1.28.16-1.82.46.1.04.18.08.28.1.68.2 1.5.46 2.5 1.46 1 .98 1.24 1.82 1.44 2.48.18.56.3 1.02.96 1.66.619.62 1.039.76 1.619.92.32.1.66.22 1.06.4.18-.54.26-1.16.16-1.84-.16-1.3-.84-2.62-1.9-3.68-1.28-1.28-2.88-1.96-4.3-1.96Zm18.358-5.26-2.64 20.539c-.1.8-.78 1.38-1.58 1.38H12.31c-.8 0-1.48-.58-1.58-1.38L8.09 21.343c-.12-.96.62-1.8 1.58-1.8h30.658c.96 0 1.7.84 1.58 1.8Zm-12.66 5.8c-2.899-2.92-7.199-3.38-9.538-1.04-.14.16-.24.32-.36.48-.04.02-.06.04-.08.06l-.06.12c-1.72 2.42-1.14 6.22 1.54 8.88 1.66 1.68 3.76 2.539 5.7 2.539 1.459 0 2.839-.5 3.839-1.5.14-.14.24-.3.34-.46.04-.02.08-.02.1-.06.04-.04.04-.1.08-.14 1.7-2.44 1.12-6.22-1.56-8.879ZM37.769.005 11.79 1.945c-1.04.08-1.86.96-1.86 2v1.54h30.138v-3.34c0-1.24-1.06-2.22-2.3-2.14Zm3.788 7.472H8.444a3.928 3.928 0 0 0-3.928 3.928c0 .765.62 1.386 1.385 1.386h38.197c.766 0 1.386-.62 1.386-1.386a3.928 3.928 0 0 0-3.928-3.928Z"/></svg>