<svg xmlns="http://www.w3.org/2000/svg" width="76" height="76" fill="none"><rect width="76" height="76" fill="#1A1A1A" rx="38"/><path fill="#EFCCFF" d="M50 41a1.5 1.5 0 0 0-2.56-1.06l-7.94 7.939V24.5a1.5 1.5 0 1 0-3 0v23.38l-7.94-7.94a1.5 1.5 0 1 0-2.12 2.122l10.5 10.5.003.003.001.002.002.001.002.002.001.001a1.495 1.495 0 0 0 .467.312h.001l.002.001a1.494 1.494 0 0 0 1.162 0h.002l.001-.001c.168-.071.326-.174.464-.309l.003-.003.003-.003.002-.001.001-.002.004-.003 10.5-10.5c.292-.293.439-.677.439-1.06Z"/></svg>