<svg xmlns="http://www.w3.org/2000/svg" width="212" height="30" fill="none"><g fill="#1A1A1A" clip-path="url(#a)"><path d="M32.326 0C37.724 0 42.1 4.365 42.1 9.75s-4.375 9.75-9.773 9.75h-6.402L36.45 30H23.693L11.846 18.182A4.48 4.48 0 0 1 10.525 15c0-2.485 2.02-4.5 4.51-4.5h17.291a.75.75 0 1 0 0-1.5h-17.29c-3.322 0-6.015 2.686-6.015 6 0 1.793.788 3.401 2.038 4.5h-.017L21.567 30h-6.531C6.732 30 0 23.284 0 15 0 6.716 6.732 0 15.036 0h17.29Z"/><path d="M42.1 21v9h-3.524l-9.021-9H42.1ZM204.958 6.229l.113.038c1.461.038 2.734 1.064 3.108 2.472l.038.152L212 24.484h-5.019l-2.247-9.28-1.761 5.667c-.524 1.56-1.947 2.662-3.595 2.662-1.573 0-2.997-1.027-3.521-2.51l-.075-.152-1.76-5.667-2.248 9.28h-4.981l3.745-15.593.038-.152c.412-1.484 1.723-2.51 3.258-2.51l.113.038c1.385.038 2.584.95 3.071 2.243l.037.115 2.323 7.416 2.322-7.416.037-.115a3.407 3.407 0 0 1 3.221-2.281Zm-27.369 18.255c-4.982 0-8.989-4.07-8.989-9.128V6.23h4.831v9.127c0 2.32 1.873 4.222 4.158 4.222 2.247 0 4.119-1.902 4.119-4.222V6.23h4.87v9.127c0 5.059-4.045 9.128-8.989 9.128Zm-9.868-18.255v4.944c-2.098 0-3.933 1.407-4.532 3.46l-.862 2.891c-1.199 4.146-4.944 6.96-9.177 6.96v-4.906c2.061 0 3.934-1.407 4.533-3.461l.824-2.89c1.198-4.146 4.943-6.998 9.214-6.998Zm-19.424 7.911c.787 0 1.46-.647 1.46-1.484 0-.799-.673-1.483-1.46-1.483h-5.356v2.966h5.356Zm0-7.911c3.483 0 6.33 2.89 6.33 6.427 0 3.537-2.847 6.428-6.33 6.428h-5.356v5.4h-4.832V10.678c0-2.434 1.948-4.45 4.345-4.45h5.843Zm-17.387 0h4.832v18.255h-4.832V6.23Zm-10.894 4.715h-.973c-2.435 0-4.383 1.978-4.383 4.412 0 2.472 1.948 4.45 4.383 4.45h.973c2.434 0 4.382-1.978 4.382-4.45 0-2.434-1.948-4.412-4.382-4.412ZM119.043 6h.973c5.094 0 9.214 4.184 9.214 9.356 0 5.21-4.12 9.394-9.214 9.394h-.973c-5.094 0-9.215-4.184-9.215-9.394 0-5.172 4.121-9.356 9.215-9.356Zm-11.268 5.173h-9.438c-2.285 0-4.158 1.901-4.158 4.183 0 2.32 1.873 4.222 4.158 4.222h4.682c.487-.076.899-.494.899-1.027v-.456h-7.304V13.15h8.128c2.247 0 4.007 1.825 4.007 4.069v1.331c0 3.233-2.509 5.857-5.693 5.933h-4.72c-4.98 0-8.988-4.07-8.988-9.128 0-5.02 4.007-9.127 8.989-9.127h9.438v4.944Zm-28.499-.229h-.974c-2.435 0-4.383 1.978-4.383 4.412 0 2.472 1.948 4.45 4.383 4.45h.974c2.434 0 4.382-1.978 4.382-4.45 0-2.434-1.948-4.412-4.382-4.412ZM78.302 6h.974c5.093 0 9.214 4.184 9.214 9.356 0 5.21-4.12 9.394-9.214 9.394h-.974c-5.094 0-9.214-4.184-9.214-9.394 0-5.172 4.12-9.356 9.214-9.356ZM53.375 17.106V6.229h4.832v10.877c0 1.369 1.086 2.472 2.434 2.472h7.304v4.906H60.64c-4.007 0-7.266-3.309-7.266-7.378Z"/></g><defs><clipPath id="a"><path fill="#fff" d="M0 0h212v30H0z"/></clipPath></defs></svg>