<svg xmlns="http://www.w3.org/2000/svg" width="216" height="34" fill="none"><g fill="#1A1A1A" clip-path="url(#a)"><path d="M30.139 1.308A3.916 3.916 0 0 1 32.962.09h13.67c8.889 0 13.34 11.188 7.055 17.73L39.995 32.075c-.628.655-1.703.191-1.703-.734V18.787l1.582-1.647c1.257-1.309.367-3.547-1.41-3.547H18.336L30.139 1.308Z"/><path d="M26.49 31.073a3.916 3.916 0 0 1-2.823 1.217H9.997c-8.889 0-13.34-11.188-7.055-17.731L16.634.306c.628-.654 1.703-.19 1.703.735v12.553l-1.582 1.647c-1.257 1.309-.367 3.546 1.41 3.546h20.127L26.49 31.073ZM136.032 10.88v16.186h4.751V10.88h-4.751Zm.331-2.693c.561.562 1.247.843 2.059.843s1.494-.281 2.045-.843a2.787 2.787 0 0 0 .842-2.045c0-.823-.281-1.51-.842-2.061-.551-.562-1.233-.843-2.045-.843-.812 0-1.498.281-2.059.843-.562.551-.842 1.238-.842 2.06 0 .803.28 1.485.842 2.046Z"/><path fill-rule="evenodd" d="M143.463 33.385V10.88h4.51v1.61h.059c.284-.28.59-.536.918-.767 1.062-.743 2.285-1.114 3.668-1.114 1.213 0 2.371.316 3.473.948 1.113.632 2.015 1.57 2.706 2.813.691 1.244 1.027 2.793 1.007 4.648.01 1.404-.186 2.628-.586 3.67-.401 1.034-.943 1.891-1.624 2.573a6.84 6.84 0 0 1-2.285 1.535 6.75 6.75 0 0 1-2.556.511c-1.363 0-2.585-.38-3.668-1.143a7.796 7.796 0 0 1-.774-.632h-.098v7.853h-4.75Zm8.178-10.05c.701-.01 1.318-.195 1.849-.556.531-.36.948-.872 1.248-1.534.301-.662.446-1.434.436-2.317.01-.902-.14-1.675-.451-2.317-.301-.651-.726-1.148-1.278-1.489-.551-.35-1.183-.521-1.894-.511a3.176 3.176 0 0 0-1.804.496c-.531.341-.952.838-1.263 1.49-.31.641-.466 1.418-.466 2.331 0 .883.156 1.655.466 2.317.321.662.752 1.173 1.293 1.534.541.361 1.163.547 1.864.557Z" clip-rule="evenodd"/><path d="M164.379 26.81a7.808 7.808 0 0 0 2.766.497c1.102 0 2.109-.215 3.021-.646.922-.432 1.659-1.033 2.21-1.806.562-.782.842-1.68.842-2.692 0-.803-.17-1.48-.511-2.031a4.307 4.307 0 0 0-1.263-1.354 7.013 7.013 0 0 0-1.548-.827 13.575 13.575 0 0 0-1.399-.482 38.927 38.927 0 0 1-1.503-.466c-.48-.16-.877-.351-1.187-.572-.311-.22-.466-.511-.466-.872s.155-.662.466-.903c.31-.24.701-.36 1.173-.36.56 0 1.021.15 1.382.45.372.301.651.612.842.933l3.653-1.58c-.46-1.042-1.243-1.88-2.345-2.512-1.092-.631-2.325-.947-3.698-.947-1.102 0-2.085.205-2.947.616-.851.412-1.528.983-2.029 1.715-.491.722-.736 1.56-.736 2.512 0 .903.21 1.67.631 2.302a5.204 5.204 0 0 0 1.639 1.565 9.895 9.895 0 0 0 2.164.947c.331.09.692.19 1.083.301.4.11.781.24 1.142.391.361.15.656.331.887.542a.988.988 0 0 1 .105 1.399c-.15.2-.361.366-.631.496-.271.12-.587.18-.947.18-.682 0-1.273-.21-1.775-.631-.5-.421-.876-.867-1.126-1.339l-3.729 1.64a6.014 6.014 0 0 0 1.518 2.136 7.343 7.343 0 0 0 2.316 1.399Zm28.15.257V10.88h4.525v2.061h.082a5.926 5.926 0 0 1 1.196-1.248c.902-.702 1.969-1.053 3.202-1.053 1.022 0 1.889.25 2.601.752.549.374.996.875 1.342 1.504h.085a5.494 5.494 0 0 1 1.865-1.534 6.797 6.797 0 0 1 3.112-.722c1.072 0 1.955.19 2.645.571.692.371 1.233.863 1.624 1.475a5.99 5.99 0 0 1 .827 1.985 9.4 9.4 0 0 1 .241 2.076v10.32h-4.781v-9.733c0-.883-.185-1.56-.556-2.031-.361-.481-.892-.722-1.594-.722-.461 0-.872.105-1.233.316-.35.2-.631.506-.841.917-.201.412-.301.918-.301 1.52v9.733h-4.75v-9.733c0-.883-.186-1.56-.557-2.031-.37-.481-.907-.722-1.608-.722-.681 0-1.248.236-1.699.707-.451.461-.676 1.153-.676 2.076v9.703h-4.751Zm-11.625.24c-1.113 0-2.125-.236-3.036-.707a5.436 5.436 0 0 1-2.181-2.106c-.53-.933-.796-2.081-.796-3.445v-10.17h4.75v9.538c0 .933.241 1.645.722 2.136a2.461 2.461 0 0 0 1.789.722c.521 0 .977-.115 1.368-.346.401-.23.711-.556.932-.977.231-.432.345-.943.345-1.535V10.88h4.751v10.515c0 .582.086 1.003.256 1.264.17.26.516.486 1.037.677l-1.684 3.97c-1.192-.31-2.064-.716-2.615-1.218a2.535 2.535 0 0 1-.631-.872h-.121c-.42.422-.886.798-1.398 1.128-1.013.642-2.175.963-3.488.963Z"/><path fill-rule="evenodd" d="M125.746 27.307c-1.554 0-2.972-.356-4.254-1.068a8.198 8.198 0 0 1-3.053-2.948c-.751-1.254-1.127-2.698-1.127-4.332 0-1.635.376-3.08 1.127-4.333a8.082 8.082 0 0 1 3.053-2.933c1.282-.702 2.7-1.053 4.254-1.053 1.583 0 3.011.35 4.285 1.053a7.87 7.87 0 0 1 3.021 2.933c.752 1.254 1.127 2.698 1.127 4.333 0 1.634-.375 3.078-1.127 4.332a7.946 7.946 0 0 1-3.037 2.948c-1.272.712-2.695 1.068-4.269 1.068Zm0-4.061c.741 0 1.408-.18 1.999-.542a3.81 3.81 0 0 0 1.398-1.504c.341-.642.511-1.39.511-2.241 0-.823-.165-1.555-.495-2.197a3.762 3.762 0 0 0-1.368-1.504c-.582-.371-1.254-.557-2.015-.557-.751 0-1.429.18-2.03.542a3.719 3.719 0 0 0-1.398 1.49c-.34.64-.511 1.383-.511 2.226 0 .852.171 1.6.511 2.24a3.93 3.93 0 0 0 1.414 1.505 3.729 3.729 0 0 0 1.984.542Zm-22.494 9.882c1.122.331 2.355.497 3.698.497 1.253 0 2.4-.16 3.443-.482 1.042-.31 1.944-.782 2.705-1.414a6.387 6.387 0 0 0 1.79-2.346c.42-.933.631-2.016.631-3.25V10.865h-4.315v1.58h-.09a7.056 7.056 0 0 0-.932-.753c-1.042-.712-2.26-1.068-3.653-1.068-1.203 0-2.361.306-3.473.918-1.112.601-2.024 1.504-2.736 2.707-.701 1.194-1.052 2.693-1.052 4.498 0 1.354.205 2.532.616 3.535.411 1.003.957 1.84 1.639 2.513a7.033 7.033 0 0 0 2.3 1.489 7.08 7.08 0 0 0 2.54.481c1.374 0 2.596-.376 3.669-1.128.339-.241.656-.507.95-.797h.072v1.564c0 .772-.25 1.394-.752 1.866a4.507 4.507 0 0 1-1.818 1.053 6.97 6.97 0 0 1-2.06.33 7.175 7.175 0 0 1-2.285-.376 9.226 9.226 0 0 1-1.954-.872l-1.564 3.73c.642.342 1.518.672 2.631.993Zm6.193-10.77c-.55.36-1.187.541-1.909.541-.712 0-1.338-.18-1.879-.541a3.812 3.812 0 0 1-1.277-1.52c-.311-.652-.467-1.399-.467-2.241 0-.843.156-1.575.467-2.197a3.443 3.443 0 0 1 1.322-1.429c.562-.34 1.198-.511 1.909-.511.712 0 1.339.165 1.88.496.541.331.967.808 1.277 1.43.311.611.466 1.348.466 2.21 0 .853-.16 1.605-.48 2.257-.322.642-.758 1.143-1.309 1.505Zm-19.817 4.949c-1.553 0-2.971-.356-4.254-1.068a8.198 8.198 0 0 1-3.052-2.948c-.752-1.254-1.128-2.698-1.128-4.332 0-1.635.376-3.08 1.128-4.333a8.082 8.082 0 0 1 3.052-2.933c1.283-.702 2.7-1.053 4.254-1.053 1.583 0 3.012.35 4.284 1.053a7.866 7.866 0 0 1 3.022 2.933c.752 1.254 1.128 2.698 1.128 4.333 0 1.634-.376 3.078-1.128 4.332a7.945 7.945 0 0 1-3.037 2.948c-1.273.712-2.696 1.068-4.269 1.068Zm0-4.061c.742 0 1.408-.18 2-.542a3.827 3.827 0 0 0 1.398-1.504c.34-.642.51-1.39.51-2.241 0-.823-.165-1.555-.496-2.197a3.75 3.75 0 0 0-1.368-1.504c-.58-.371-1.253-.557-2.014-.557-.752 0-1.428.18-2.03.542a3.714 3.714 0 0 0-1.398 1.49c-.34.64-.511 1.383-.511 2.226 0 .852.17 1.6.511 2.24a3.933 3.933 0 0 0 1.414 1.505 3.73 3.73 0 0 0 1.984.542Z" clip-rule="evenodd"/><path d="M68.352 4.893v22.173h12.913v-4.392h-7.983V4.893h-4.93Z"/></g><defs><clipPath id="a"><path fill="#fff" d="M0 0h216v34H0z"/></clipPath></defs></svg>