<svg xmlns="http://www.w3.org/2000/svg" width="203" height="34" fill="none"><g fill="#1A1A1A" clip-path="url(#a)"><path d="M177.708 27.308V10.383h4.432v3.013h.212c.353-1 .942-1.787 1.769-2.362.827-.575 1.811-.863 2.95-.863 1.16 0 2.143.293 2.95.878.817.575 1.361 1.357 1.634 2.347h.181c.343-.98.968-1.762 1.876-2.347.907-.585 1.976-.878 3.206-.878 1.573 0 2.854.5 3.843 1.499.998.999 1.497 2.417 1.497 4.254v11.384h-4.689V16.862c0-.948-.252-1.655-.757-2.12-.493-.463-1.114-.696-1.86-.696-.847 0-1.513.273-1.997.818-.474.535-.711 1.241-.711 2.12v10.324h-4.538V16.741c0-.817-.237-1.468-.711-1.953-.473-.494-1.093-.742-1.86-.742-.524 0-.993.132-1.407.394a2.787 2.787 0 0 0-.983 1.09c-.242.454-.363 1-.363 1.635v10.143h-4.674Zm-6.667-7.191v-9.734h4.674v16.925h-4.492v-3.073h-.182a5.166 5.166 0 0 1-1.891 2.392c-.877.606-1.951.903-3.221.893-1.13 0-2.128-.252-2.995-.757-.858-.515-1.528-1.246-2.012-2.195-.474-.949-.711-2.084-.711-3.406v-10.78h4.674v9.962c0 .99.267 1.776.802 2.362.534.575 1.245.858 2.133.848a3.35 3.35 0 0 0 1.572-.379 3.04 3.04 0 0 0 1.18-1.166c.313-.514.469-1.145.469-1.892Zm-12.416-4.905-4.281.258c-.111-.535-.408-.995-.892-1.378-.484-.394-1.135-.59-1.952-.59-.725 0-1.335.15-1.83.454-.484.302-.726.706-.726 1.21 0 .404.157.753.469 1.045.323.283.873.505 1.649.666l3.071.606c1.644.333 2.868.873 3.675 1.62.807.747 1.21 1.73 1.21 2.952 0 1.12-.322 2.1-.968 2.937-.645.828-1.533 1.479-2.662 1.953-1.129.464-2.425.696-3.888.696-2.238 0-4.023-.47-5.354-1.408-1.321-.938-2.093-2.21-2.314-3.815l4.583-.242c.151.686.494 1.206 1.028 1.56.535.353 1.221.53 2.057.53.817 0 1.478-.162 1.982-.485.514-.323.772-.732.772-1.226 0-.838-.726-1.403-2.179-1.696l-2.919-.606c-1.643-.333-2.869-.903-3.676-1.71-.806-.808-1.21-1.842-1.21-3.104 0-1.09.298-2.028.893-2.816.595-.787 1.427-1.392 2.495-1.816 1.08-.424 2.34-.636 3.782-.636 2.138 0 3.817.454 5.037 1.363 1.23.898 1.946 2.124 2.148 3.678Zm-31.777 18.424V10.383h4.598v2.861h.212c.212-.464.514-.933.908-1.408.392-.474.907-.868 1.542-1.18.636-.324 1.422-.485 2.36-.485 1.241 0 2.375.323 3.403.969 1.039.636 1.871 1.6 2.496 2.891.625 1.292.938 2.907.938 4.845 0 1.877-.303 3.467-.908 4.768-.604 1.292-1.426 2.271-2.465 2.938-1.029.666-2.189.999-3.48.999-.907 0-1.678-.152-2.314-.454-.634-.303-1.154-.682-1.557-1.136a6.506 6.506 0 0 1-.923-1.393h-.136v9.038h-4.674Zm8.122-9.78c.767 0 1.412-.212 1.937-.635.524-.424.923-1.01 1.194-1.756.273-.757.409-1.625.409-2.604 0-.98-.136-1.837-.409-2.574-.262-.747-.655-1.332-1.18-1.756-.524-.424-1.174-.636-1.951-.636-.756 0-1.401.207-1.935.62-.525.404-.928.98-1.211 1.727-.272.736-.408 1.61-.408 2.619 0 .999.141 1.872.423 2.619.283.747.686 1.332 1.211 1.756.534.414 1.174.62 1.92.62Zm-14.789 3.452V10.383h4.674v16.925h-4.674Zm2.329-19.09a2.514 2.514 0 0 1-1.785-.696c-.494-.465-.741-1.025-.741-1.68 0-.657.247-1.212.741-1.666a2.514 2.514 0 0 1 1.785-.697c.706 0 1.306.233 1.8.697.494.454.741 1.01.741 1.665 0 .656-.247 1.216-.741 1.68-.494.465-1.094.697-1.8.697Zm-11.946 19.423c-1.705 0-3.182-.363-4.432-1.09a7.501 7.501 0 0 1-2.875-3.058c-.665-1.312-.997-2.836-.997-4.572 0-1.756.332-3.285.997-4.587.676-1.312 1.634-2.331 2.875-3.058 1.25-.737 2.727-1.105 4.432-1.105 1.714 0 3.191.368 4.432 1.105a7.25 7.25 0 0 1 2.873 3.058c.676 1.302 1.014 2.831 1.014 4.587 0 1.736-.338 3.26-1.014 4.572a7.368 7.368 0 0 1-2.873 3.058c-1.241.727-2.718 1.09-4.432 1.09Zm.03-3.663c.777 0 1.427-.217 1.951-.651.524-.444.918-1.05 1.18-1.817.272-.767.408-1.64.408-2.62 0-.988-.136-1.861-.408-2.618-.262-.757-.656-1.352-1.18-1.786-.524-.434-1.174-.652-1.951-.652-.787 0-1.447.218-1.982.652-.524.433-.923 1.029-1.194 1.786-.263.757-.394 1.63-.394 2.619 0 .979.131 1.852.394 2.619.271.767.67 1.373 1.194 1.817.535.434 1.195.65 1.982.65ZM92.716 34c-2.28 0-4.064-.455-5.355-1.363-1.29-.898-2.077-2.018-2.36-3.36l4.327-.576c.131.343.337.661.62.954.283.292.66.524 1.134.696.474.182 1.054.273 1.74.273 1.019 0 1.86-.248 2.526-.742.666-.485.998-1.307.998-2.468v-3.103h-.196a4.48 4.48 0 0 1-.923 1.332c-.414.424-.943.767-1.589 1.03-.645.262-1.416.393-2.314.393-1.27 0-2.425-.293-3.463-.878-1.03-.595-1.856-1.504-2.48-2.725-.617-1.221-.924-2.765-.924-4.633 0-1.927.312-3.532.938-4.814.636-1.282 1.472-2.24 2.51-2.876a6.35 6.35 0 0 1 3.42-.97c.947 0 1.74.162 2.374.485.645.313 1.17.707 1.573 1.181.404.475.706.944.908 1.408h.181v-2.861h4.614V27.49c0 1.433-.353 2.634-1.058 3.603-.706.969-1.68 1.695-2.92 2.18-1.24.484-2.668.727-4.28.727Zm.09-10.461c1.13 0 2.002-.42 2.618-1.257.625-.838.937-1.998.937-3.482 0-.989-.14-1.847-.423-2.573-.272-.737-.67-1.308-1.195-1.711-.525-.414-1.17-.62-1.936-.62-.767 0-1.417.211-1.952.635-.524.414-.922.989-1.195 1.726-.271.736-.408 1.584-.408 2.543 0 .969.137 1.812.409 2.528.272.707.67 1.252 1.194 1.635.535.384 1.185.576 1.951.576Zm-17.269 4.102c-1.705 0-3.182-.363-4.432-1.09a7.5 7.5 0 0 1-2.874-3.058c-.666-1.312-.999-2.836-.999-4.572 0-1.756.333-3.285.999-4.587.675-1.312 1.633-2.331 2.874-3.058 1.25-.737 2.727-1.105 4.432-1.105 1.714 0 3.191.368 4.432 1.105a7.253 7.253 0 0 1 2.874 3.058c.675 1.302 1.013 2.831 1.013 4.587 0 1.736-.338 3.26-1.013 4.572a7.371 7.371 0 0 1-2.874 3.058c-1.24.727-2.718 1.09-4.432 1.09Zm.03-3.663c.777 0 1.427-.217 1.951-.651.525-.444.918-1.05 1.18-1.817.272-.767.409-1.64.409-2.62 0-.988-.137-1.861-.409-2.618-.262-.757-.655-1.352-1.18-1.786-.524-.434-1.174-.652-1.951-.652-.786 0-1.447.218-1.982.652-.524.433-.922 1.029-1.195 1.786-.262.757-.393 1.63-.393 2.619 0 .979.131 1.852.393 2.619.273.767.671 1.373 1.195 1.817.535.434 1.196.65 1.982.65ZM52.2 27.309V4.752h4.749v18.62h9.666v3.937H52.199ZM30.984 33.17c5.33-.108 9.616-4.471 9.616-9.835a9.844 9.844 0 0 0-2.877-6.956L21.368 0v10.181c0 1.703.676 3.336 1.878 4.54l3.831 3.837.01.01 6.425 6.434a.535.535 0 0 1-.756.756l-2.214-2.217H10.058l-2.214 2.217a.534.534 0 1 1-.756-.756l6.424-6.434.01-.01 3.832-3.837a6.425 6.425 0 0 0 1.878-4.54V0L2.877 16.38A9.844 9.844 0 0 0 0 23.334c0 5.364 4.286 9.727 9.616 9.836h21.368Z"/></g><defs><clipPath id="a"><path fill="#fff" d="M0 0h203v34H0z"/></clipPath></defs></svg>