<svg xmlns="http://www.w3.org/2000/svg" width="50" height="50" fill="none"><path fill="#1A1A1A" d="M37.377 11.82a1.563 1.563 0 0 0-2.208 0l-7.367 7.367c-.503.503-2.14.862-3.875 1.245-2.709.6-6.078 1.341-7.91 3.175L2.05 37.576a2.083 2.083 0 0 0 0 2.945l7.365 7.367a2.083 2.083 0 0 0 2.945 0L26.328 33.92c1.823-1.823 2.578-5.208 3.174-7.908.383-1.738.742-3.386 1.245-3.878l7.367-7.365a1.564 1.564 0 0 0 0-2.21l-.737-.738ZM14.911 26.185l2.948 2.945-8.104 8.11-2.945-2.954 8.101-8.101Zm-1.607 19.284-1.682 1.682a1.042 1.042 0 0 1-1.471 0l-7.367-7.367a1.042 1.042 0 0 1 0-1.471l1.682-1.683.367-.367 8.839 8.839-.368.367Zm16.709-24.073c-.719.719-1.076 2.344-1.529 4.388-.565 2.575-1.273 5.779-2.89 7.398L14.777 44.01l-.37.368-8.838-8.852.37-.37.133-.133 3.315 3.316a.521.521 0 0 0 .737 0l8.838-8.842a.52.52 0 0 0 0-.734l-3.315-3.315 1.104-1.104c1.62-1.62 4.823-2.326 7.399-2.893 2.05-.454 3.669-.81 4.388-1.527l1.84-1.843 1.475 1.474-1.841 1.84Zm2.578-2.578-1.474-1.472.737-.737 1.479 1.472-.742.737Zm4.786-4.787-3.315 3.315-1.471-1.46 3.312-3.316a.52.52 0 0 1 .737 0l.737.737a.5.5 0 0 1 .151.367.521.521 0 0 1-.15.357Zm6.865-7.88a.52.52 0 0 0-.737 0l-4.167 4.167a.52.52 0 1 0 .737.737l4.167-4.167a.52.52 0 0 0 0-.737Zm-7.136 2.443a.521.521 0 0 0 1.042 0c0-3.386-.888-5.084-2.219-6.594a.521.521 0 1 0-.78.69c1.174 1.339 1.957 2.854 1.957 5.904Zm11.304 5.893c-1.65-1.675-3.32-2.24-6.622-2.24a.52.52 0 0 0 0 1.042c3.05 0 4.428.45 5.88 1.93a.521.521 0 1 0 .743-.732Z"/></svg>