<svg xmlns="http://www.w3.org/2000/svg" width="46" height="46" fill="none"><g fill="#1A1A1A" clip-path="url(#a)"><path d="M45 2.73a7.998 7.998 0 0 0-6.996 7.934V24.68c0 .496.402.898.898.898h2.965l-1.042 14.818a2.591 2.591 0 1 0 5.175.2V3.623a.896.896 0 0 0-1-.893ZM13.297 16.234V4.072a1.348 1.348 0 0 0-2.695 0v10.814H7.996V4.072a1.348 1.348 0 0 0-2.695 0v10.814H2.695V4.072a1.348 1.348 0 0 0-2.695 0v12.162a6.66 6.66 0 0 0 4.356 6.241l-.89 17.532a3.123 3.123 0 1 0 6.24-.034L8.62 22.583c2.706-.842 4.676-3.37 4.676-6.349ZM23 28.812a5.84 5.84 0 1 0 0-11.68 5.84 5.84 0 0 0 0 11.68Z"/><path d="M35.308 24.68V12.011c.022-1.02-.072-1.863.161-3.193A18.834 18.834 0 0 0 15.992 5.45v10.783c0 .791-.099 1.567-.29 2.316A8.538 8.538 0 0 1 23 14.437c4.706 0 8.535 3.83 8.535 8.535 0 4.707-3.829 8.536-8.535 8.536-5.494 0-9.6-5.158-8.296-10.543a9.387 9.387 0 0 1-3.286 3.299l.822 14.203c8.514 5.93 20.308 3.876 26.298-4.797l.417-5.397h-.053a3.598 3.598 0 0 1-3.594-3.594Z"/></g><defs><clipPath id="a"><path fill="#fff" d="M0 0h46v46H0z"/></clipPath></defs></svg>