<svg xmlns="http://www.w3.org/2000/svg" width="50" height="50" fill="none"><path fill="#1A1A1A" d="M45.16 4.841a.52.52 0 0 0-.4-.153l-15.447.908a.52.52 0 0 0-.336.888l1.448 1.45-18.706 18.714a.519.519 0 0 0 0 .738l5.083 5.083-8.729 8.718a.521.521 0 0 0 .737.738l8.72-8.72 5.085 5.076a.521.521 0 0 0 .737 0l18.713-18.713 1.451 1.448a.521.521 0 0 0 .888-.336l.909-15.44a.52.52 0 0 0-.154-.399Zm-9.91 7.92h-8.166l4.088-4.09 4.078 4.09Zm-9.208 1.041h10.26l1.823 1.823H24.22l1.823-1.823Zm-8.333 8.334H38.02l-1.562 1.562H16.146l1.563-1.563Zm-2.604 2.604h20.312l-4.427 4.427H14.967l-2.152-2.149 2.29-2.278Zm13.02 7.291H17.831l-1.823-1.823h13.94l-1.823 1.823Zm-5.14 5.154-4.112-4.112h8.21l-4.098 4.112Zm16.078-16.091H18.75l4.427-4.427h15.99l2.172 2.172-2.276 2.255Zm4.36-1.625L30.531 6.568l13.705-.805-.815 13.706ZM6.25 43.005l-3.492 3.503a.521.521 0 1 0 .735.734l3.502-3.492a.527.527 0 1 0-.745-.745Zm0-2.38a.52.52 0 0 0-.52-.52H2.082a.52.52 0 0 0 0 1.04H5.73a.52.52 0 0 0 .521-.52Zm3.125 3.125a.521.521 0 0 0-.52.52v3.647a.521.521 0 0 0 1.041 0V44.27a.521.521 0 0 0-.52-.521Z"/></svg>