<svg xmlns="http://www.w3.org/2000/svg" width="195" height="30" fill="none"><g fill="#1C1C1C" clip-path="url(#a)"><path d="M25.293 27.436A16.072 16.072 0 0 0 2.564 4.707l5.304 5.304c.837.836 2.188.795 3.253.278a6.427 6.427 0 0 1 8.59 8.59c-.516 1.065-.558 2.416.279 3.253l5.303 5.304ZM22.5 30h-7.868a4.285 4.285 0 0 1-3.03-1.255L1.255 18.398A4.286 4.286 0 0 1 0 15.368V7.5L22.5 30ZM8.036 30H3.214A3.214 3.214 0 0 1 0 26.785v-4.821L8.036 30ZM183.103 5.197c6.33 0 11.483 5.154 11.483 11.484v8.122h-5.602v-8.122c0-2.325-1.4-4.342-3.36-5.294v13.416h-5.602v-8.122c0-2.325-1.401-4.342-3.362-5.294v13.416h-5.601V5.197h3.081c2.128 0 4.145.616 5.882 1.653V5.197h3.081ZM168.834 16.68c0 4.482-3.67 8.123-8.124 8.123-4.481 0-8.122-3.64-8.122-8.122V5.197h5.602v11.484c0 1.4 1.12 2.52 2.52 2.52a2.529 2.529 0 0 0 2.522-2.52V5.197h5.602v11.484Zm-17.954 1.822a6.252 6.252 0 0 1-6.246 6.245h-8.319v-5.601h8.319c.336 0 .644-.28.644-.645 0-.336-.308-.616-.644-.616h-2.269a6.323 6.323 0 0 1-6.33-6.33c0-3.5 2.829-6.358 6.33-6.358h8.234V10.8h-8.234c-.42 0-.728.336-.728.756 0 .392.308.729.728.729h2.269c3.445 0 6.246 2.8 6.246 6.217ZM127.831 5.197c3.922 0 7.143 3.221 7.143 7.142 0 3.95-3.221 7.143-7.143 7.143h-2.1v5.322h-5.602V5.197h7.702Zm0 8.683c.841 0 1.541-.672 1.541-1.54 0-.84-.7-1.541-1.541-1.541h-2.1v3.081h2.1Zm-10.223 10.923h-5.602V5.197h5.602v19.607ZM110.284 15c0 5.406-4.426 9.803-9.803 9.803-5.406 0-9.803-4.397-9.803-9.803 0-5.377 4.397-9.803 9.803-9.803 5.377 0 9.803 4.426 9.803 9.803Zm-5.602 0c0-2.296-1.905-4.201-4.201-4.201-2.325 0-4.201 1.905-4.201 4.201a4.196 4.196 0 0 0 4.201 4.202c2.296 0 4.201-1.877 4.201-4.202Zm-15.634-1.26v11.063h-7.003c-5.405 0-9.803-4.397-9.803-9.803 0-5.377 4.398-9.803 9.803-9.803h7.003V10.8h-7.003c-2.324 0-4.2 1.905-4.2 4.201a4.196 4.196 0 0 0 4.2 4.202h1.401V13.74h5.602ZM71.335 15c0 5.406-4.426 9.803-9.803 9.803-5.406 0-9.803-4.397-9.803-9.803 0-5.377 4.397-9.803 9.803-9.803 5.377 0 9.803 4.426 9.803 9.803Zm-5.602 0c0-2.296-1.905-4.201-4.201-4.201-2.325 0-4.202 1.905-4.202 4.201a4.196 4.196 0 0 0 4.202 4.202c2.296 0 4.2-1.877 4.2-4.202Zm-14.582 4.202v5.601H44.15a5.02 5.02 0 0 1-5.042-5.041V5.197h5.602v14.005h6.442Z"/></g><defs><clipPath id="a"><path fill="#fff" d="M0 0h195v30H0z"/></clipPath></defs></svg>