<svg xmlns="http://www.w3.org/2000/svg" width="420" height="663" fill="none"><path fill="#1A1A1A" d="M44.358 643.566c13 0 23.539 8.699 23.539 19.434h19.54c0-10.735 10.539-19.434 23.538-19.434 13.001 0 23.541 8.699 23.541 19.434h19.538c0-10.735 10.54-19.434 23.54-19.434s23.539 8.699 23.539 19.434h19.541c0-10.735 10.539-19.434 23.539-19.434 13.001 0 23.539 8.699 23.539 19.434h19.541c0-10.735 10.539-19.434 23.54-19.434 13 0 23.539 8.699 23.539 19.434h19.541c0-10.735 10.538-19.434 23.539-19.434 13 0 23.539 8.699 23.539 19.434H420V0h-19.009c0 10.735-10.539 19.436-23.539 19.436-13.001 0-23.539-8.701-23.539-19.436h-19.541c0 10.735-10.539 19.436-23.539 19.436-13.001 0-23.54-8.701-23.54-19.436h-19.54c0 10.735-10.539 19.436-23.54 19.436-12.999 0-23.539-8.701-23.539-19.436h-19.541c0 10.735-10.539 19.436-23.539 19.436-13 0-23.54-8.701-23.54-19.436h-19.538c0 10.735-10.54 19.436-23.541 19.436-13 0-23.538-8.701-23.538-19.436h-19.54c0 10.735-10.539 19.436-23.539 19.436-13 0-23.539-8.701-23.539-19.436H0v663h20.82c0-10.735 10.538-19.434 23.538-19.434Z"/><path stroke="#252422" stroke-opacity=".14" d="M419.5 662.5h-18.016c-.32-10.861-11.049-19.435-24.032-19.435-12.984 0-23.711 8.574-24.031 19.435h-18.556c-.32-10.861-11.048-19.434-24.032-19.435-12.984 0-23.712 8.574-24.032 19.435h-18.556c-.32-10.861-11.048-19.435-24.032-19.435-12.983 0-23.711 8.574-24.031 19.435h-18.556c-.32-10.861-11.048-19.435-24.032-19.435-12.983 0-23.711 8.574-24.032 19.435h-18.553c-.321-10.861-11.049-19.435-24.033-19.435-12.984 0-23.71 8.574-24.03 19.435H68.39c-.32-10.861-11.048-19.435-24.032-19.435s-23.71 8.574-24.03 19.435H.5V.5h19.827c.32 10.86 11.047 19.436 24.031 19.436C57.342 19.936 68.07 11.361 68.39.5h18.555c.32 10.86 11.047 19.436 24.031 19.436 12.984 0 23.712-8.575 24.033-19.436h18.553c.321 10.86 11.049 19.436 24.032 19.436 12.984 0 23.712-8.575 24.032-19.436h18.556c.32 10.86 11.048 19.436 24.031 19.436 12.984 0 23.712-8.575 24.032-19.436h18.556c.32 10.86 11.048 19.436 24.032 19.436S334.545 11.361 334.865.5h18.556c.32 10.86 11.047 19.436 24.031 19.436 12.983 0 23.712-8.575 24.032-19.436H419.5v662Z"/></svg>