<svg xmlns="http://www.w3.org/2000/svg" width="165" height="164" fill="none"><path fill="#C8CBFF" stroke="#1A1A1A" d="M74.565 3.952c4.076-4.602 11.26-4.602 15.336 0 3.41 3.851 9 4.896 13.572 2.537 5.463-2.82 12.162-.225 14.299 5.54a11.242 11.242 0 0 0 11.739 7.268c6.112-.656 11.421 4.184 11.333 10.33a11.24 11.24 0 0 0 8.32 11.02c5.937 1.596 9.138 8.026 6.835 13.726a11.244 11.244 0 0 0 3.778 13.28c4.959 3.634 5.622 10.787 1.415 15.27a11.242 11.242 0 0 0-1.273 13.748c3.311 5.179 1.345 12.088-4.196 14.749a11.242 11.242 0 0 0-6.155 12.359c1.217 6.026-3.113 11.76-9.242 12.239a11.24 11.24 0 0 0-10.203 9.3c-1.042 6.059-7.15 9.841-13.038 8.074a11.242 11.242 0 0 0-12.874 4.987c-3.161 5.273-10.222 6.593-15.074 2.818a11.242 11.242 0 0 0-13.807 0c-4.852 3.775-11.914 2.455-15.074-2.818a11.242 11.242 0 0 0-12.874-4.987c-5.888 1.767-11.996-2.015-13.038-8.074a11.24 11.24 0 0 0-10.203-9.3c-6.13-.479-10.46-6.213-9.243-12.239a11.242 11.242 0 0 0-6.154-12.359c-5.542-2.661-7.507-9.57-4.196-14.75a11.242 11.242 0 0 0-1.274-13.747C-.932 78.44-.269 71.287 4.69 67.653a11.243 11.243 0 0 0 3.779-13.28c-2.303-5.7.898-12.13 6.835-13.727a11.242 11.242 0 0 0 8.32-11.018c-.089-6.147 5.22-10.987 11.333-10.331a11.241 11.241 0 0 0 11.738-7.269c2.138-5.764 8.837-8.358 14.3-5.539a11.242 11.242 0 0 0 13.571-2.537Z"/></svg>