<svg xmlns="http://www.w3.org/2000/svg" width="187" height="34" fill="none"><g fill="#1C1C1C" clip-path="url(#a)"><path d="M17 34c9.388 0 17-7.61 17-17V5.1A5.1 5.1 0 0 0 28.9 0H17.85v7.458c0 1.702.103 3.464.995 4.913a8.5 8.5 0 0 0 5.869 3.933l.325.053a.68.68 0 0 1 0 1.286l-.325.053a8.5 8.5 0 0 0-7.019 7.019l-.052.325a.68.68 0 0 1-1.287 0l-.053-.325a8.5 8.5 0 0 0-3.933-5.869c-1.448-.892-3.211-.996-4.913-.996H.02C.464 26.844 7.896 34 17 34Z"/><path d="M0 16.15h7.458c1.702 0 3.464-.104 4.913-.996a8.516 8.516 0 0 0 2.783-2.783c.892-1.449.996-3.211.996-4.913V0H5.1A5.1 5.1 0 0 0 0 5.1v11.05ZM39.487 1.7a1.7 1.7 0 1 1-3.4 0 1.7 1.7 0 0 1 3.4 0Zm140.467 8.588c4.753 0 7.046 3.32 7.046 7.164v7.221h-4.973v-6.364c0-1.742-.636-3.18-2.459-3.18-1.824 0-2.431 1.438-2.431 3.18v6.363h-4.974V18.31c0-1.742-.607-3.18-2.432-3.18-1.823 0-2.459 1.438-2.459 3.18v6.363H162.3v-7.22c0-3.845 2.292-7.165 7.045-7.165 2.597 0 4.476 1.024 5.333 2.711.911-1.687 2.901-2.711 5.276-2.711v.001Zm-26.591 9.959c1.602 0 2.293-1.466 2.293-3.21v-6.196h4.973v6.805c0 4.066-2.376 7.442-7.266 7.442-4.891 0-7.267-3.375-7.267-7.442v-6.805h4.974v6.196c0 1.743.69 3.21 2.293 3.21Zm-14.579 4.868c-3.122 0-5.139-1.079-6.328-3.18l3.592-2.02c.498.884 1.243 1.327 2.487 1.327 1.022 0 1.491-.36 1.491-.802 0-1.687-7.293.028-7.293-5.338 0-2.601 2.21-4.703 5.967-4.703 3.288 0 5.084 1.604 5.886 3.153l-3.592 2.047c-.304-.83-1.244-1.328-2.183-1.328-.718 0-1.105.305-1.105.72 0 1.715 7.294.138 7.294 5.338 0 2.905-2.846 4.786-6.216 4.786Zm-17.376 5.92h-4.973V17.73c0-4.233 3.177-7.303 7.598-7.303 4.31 0 7.598 3.292 7.598 7.303 0 4.426-2.929 7.359-7.322 7.359-1.022 0-2.044-.305-2.901-.775v6.722Zm2.625-10.622c1.575 0 2.625-1.217 2.625-2.657 0-1.465-1.05-2.655-2.625-2.655s-2.625 1.19-2.625 2.656c0 1.439 1.05 2.656 2.625 2.656Zm-12.58-11.037c-1.63 0-2.984-1.356-2.984-2.988s1.354-2.988 2.984-2.988 2.984 1.356 2.984 2.988-1.354 2.988-2.984 2.988Zm-2.486 1.465h4.973v13.832h-4.973V10.841Zm-9.543 14.247c-4.31 0-7.598-3.32-7.598-7.359 0-4.01 3.288-7.33 7.599-7.33 4.31 0 7.598 3.32 7.598 7.33 0 4.04-3.288 7.359-7.599 7.359Zm0-4.675c1.576 0 2.625-1.217 2.625-2.657 0-1.465-1.049-2.682-2.625-2.682-1.575 0-2.624 1.217-2.624 2.682 0 1.44 1.05 2.657 2.624 2.657ZM82.436 31.45c-3.426 0-5.913-1.521-7.184-4.233l4.117-2.213c.442.941 1.27 1.91 2.983 1.91 1.797 0 2.985-1.135 3.123-3.127-.663.582-1.713 1.024-3.288 1.024-3.84 0-6.936-2.96-6.936-7.11 0-4.01 3.289-7.275 7.6-7.275 4.42 0 7.597 3.071 7.597 7.303v5.478c0 4.979-3.454 8.243-8.012 8.243Zm.331-11.313c1.492 0 2.625-1.025 2.625-2.546 0-1.494-1.132-2.49-2.625-2.49-1.465 0-2.625.996-2.625 2.49 0 1.522 1.16 2.545 2.625 2.545Zm-15.951 4.95c-4.31 0-7.599-3.319-7.599-7.358 0-4.01 3.289-7.33 7.599-7.33 4.31 0 7.598 3.32 7.598 7.33 0 4.04-3.288 7.359-7.598 7.359Zm0-4.674c1.575 0 2.625-1.217 2.625-2.657 0-1.465-1.05-2.682-2.625-2.682s-2.625 1.217-2.625 2.682c0 1.44 1.05 2.657 2.625 2.657ZM50.161 6v13.97h8.234v4.703H49.47c-3.15 0-4.42-1.66-4.42-4.288V6h5.111Z"/></g><defs><clipPath id="a"><path fill="#fff" d="M0 0h187v34H0z"/></clipPath></defs></svg>