<svg xmlns="http://www.w3.org/2000/svg" width="32" height="32" fill="none"><path fill="#1A1A1A" d="M21.148 9.852a7.964 7.964 0 0 0-5.648-2.34 7.964 7.964 0 0 0-5.648 2.34 7.963 7.963 0 0 0-2.34 5.648c0 2.205.895 4.202 2.34 5.648a7.964 7.964 0 0 0 5.648 2.34 7.964 7.964 0 0 0 5.648-2.34 7.997 7.997 0 0 0 1.885-2.986h7.739c.15-.865.228-1.754.228-2.662 0-4.28-1.735-8.154-4.54-10.96A15.45 15.45 0 0 0 15.5 0C11.22 0 7.346 1.735 4.54 4.54A15.452 15.452 0 0 0 0 15.5c0 4.28 1.735 8.155 4.54 10.96A15.452 15.452 0 0 0 15.5 31c4.28 0 8.155-1.735 10.96-4.54a15.507 15.507 0 0 0 3.761-6.096H24.44a10.21 10.21 0 0 1-1.745 2.331 10.144 10.144 0 0 1-7.195 2.98c-2.81 0-5.354-1.139-7.195-2.98a10.145 10.145 0 0 1-2.98-7.195 10.14 10.14 0 0 1 2.98-7.195 10.145 10.145 0 0 1 7.195-2.98 10.14 10.14 0 0 1 7.195 2.98 10.168 10.168 0 0 1 2.63 4.533h-2.292a7.997 7.997 0 0 0-1.885-2.986Zm-3.764 7.532a2.656 2.656 0 0 1-1.884.78 2.656 2.656 0 0 1-1.883-.78 2.656 2.656 0 0 1-.78-1.884c0-.736.298-1.402.78-1.883a2.656 2.656 0 0 1 1.883-.78c.735 0 1.402.298 1.884.78a2.662 2.662 0 0 1 0 3.767Z"/></svg>