<svg xmlns="http://www.w3.org/2000/svg" viewBox="0 0 512.000000 512.000000" fill="#1A1A1A" role="img" aria-label="RideOut"><g transform="translate(0.000000,512.000000) scale(0.100000,-0.100000)"
fill="#1A1A1A" stroke="none">
<path d="M2345 4414 c-216 -28 -460 -106 -635 -201 -122 -66 -146 -102 -136
-207 50 -524 493 -938 1005 -937 216 0 474 99 636 243 45 41 59 48 94 48 40 0
41 -1 41 -33 0 -23 -11 -46 -41 -82 -330 -398 -343 -892 -35 -1282 168 -212
409 -343 705 -383 106 -15 143 4 199 103 148 259 232 578 232 880 0 123 -11
159 -60 201 -24 20 -40 26 -57 21 -13 -3 -133 -69 -265 -147 -133 -77 -261
-147 -285 -155 -63 -22 -204 -14 -259 14 -53 28 -107 89 -129 146 -28 73 -18
205 20 276 16 29 43 64 60 76 16 13 172 105 345 205 173 100 325 191 337 202
12 11 27 33 33 49 11 25 9 35 -20 86 -116 206 -371 465 -589 597 -74 45 -103
46 -144 4 -18 -18 -113 -174 -212 -347 -109 -190 -196 -331 -221 -356 -56 -58
-119 -78 -232 -73 -97 4 -140 20 -191 70 -54 53 -74 103 -79 198 -5 112 2 130
173 425 75 130 138 248 138 261 0 33 -27 70 -66 91 -43 23 -216 27 -362 7z"/>
<path d="M1000 3538 c-64 -43 -182 -304 -241 -535 -53 -210 -76 -493 -45 -566
16 -40 70 -87 99 -87 11 0 133 66 271 147 137 80 270 152 295 160 59 17 167
17 222 -2 62 -21 115 -67 147 -129 23 -45 26 -63 27 -146 0 -84 -3 -102 -28
-152 -15 -31 -40 -67 -55 -80 -15 -13 -177 -110 -360 -217 -334 -194 -372
-222 -372 -273 0 -50 183 -291 326 -428 97 -93 144 -131 258 -209 97 -66 127
-73 169 -41 14 11 109 168 212 348 208 363 243 409 337 437 66 19 150 19 217
-1 69 -20 141 -90 164 -159 21 -60 22 -188 3 -243 -8 -23 -73 -141 -144 -264
-176 -304 -164 -278 -144 -319 27 -54 88 -79 193 -79 119 0 312 26 445 60 215
56 478 176 522 240 27 40 29 110 7 227 -67 353 -309 649 -632 775 -174 68
-348 84 -526 47 -170 -34 -314 -103 -457 -218 -57 -46 -83 -61 -107 -61 -32 0
-33 2 -33 38 0 32 10 51 56 108 217 270 288 592 198 901 -85 295 -274 515
-558 649 -121 57 -221 84 -336 91 -88 5 -98 3 -130 -19z"/>
</g></svg>