<svg xmlns="http://www.w3.org/2000/svg" viewBox="0 0 2803.000000 2803.000000" fill="#FFFFFF" role="img" aria-label="RideOut"><title>RideOut</title><g transform="translate(0.000000,2803.000000) scale(0.100000,-0.100000)"><path d="M13555 26090 c-946 -41 -1960 -201 -2825 -446 -848 -240 -1665 -579
-2507 -1040 -233 -128 -318 -186 -413 -283 -121 -125 -202 -272 -246 -451 -34
-138 -29 -522 12 -925 82 -809 306 -1590 656 -2289 137 -274 396 -699 560
-921 237 -320 243 -328 494 -605 146 -162 308 -320 465 -455 57 -49 129 -112
159 -139 63 -56 272 -215 440 -333 944 -664 1996 -1046 3220 -1169 218 -22
913 -26 1110 -6 553 56 959 137 1425 284 561 177 1044 401 1557 724 309 194
670 470 931 712 168 155 207 184 236 177 29 -7 51 -31 51 -56 0 -10 -60 -89
-132 -176 -366 -437 -617 -780 -827 -1127 -395 -654 -638 -1257 -801 -1990
-113 -509 -160 -943 -160 -1482 0 -434 15 -632 85 -1089 76 -501 263 -1121
489 -1624 168 -373 428 -817 693 -1184 269 -373 644 -776 1026 -1101 592 -505
1363 -950 2087 -1205 724 -254 1575 -402 2232 -389 196 4 220 7 303 32 126 38
197 73 292 145 136 103 195 181 363 481 366 654 681 1368 908 2060 145 439
190 603 311 1130 201 880 284 1761 268 2845 -10 647 -22 757 -98 941 -65 156
-199 314 -337 398 -118 71 -311 126 -446 126 -77 0 -203 -22 -286 -50 -87 -29
-164 -69 -355 -182 -88 -52 -209 -123 -270 -158 -60 -34 -184 -107 -275 -160
-227 -134 -510 -299 -660 -385 -199 -115 -352 -203 -550 -319 -102 -59 -248
-144 -325 -189 -77 -44 -210 -122 -295 -172 -133 -79 -228 -134 -435 -250
-135 -76 -395 -157 -588 -184 -111 -15 -335 -14 -449 4 -105 16 -227 45 -323
77 -520 173 -945 636 -1078 1174 -39 157 -49 229 -49 379 0 446 191 904 507
1220 141 141 198 183 457 335 542 315 761 442 988 572 135 77 328 189 430 248
102 59 316 183 475 275 160 92 414 240 565 328 151 88 307 178 345 200 39 22
102 59 140 82 39 23 237 138 440 255 560 323 579 336 686 467 209 261 264 578
155 899 -39 115 -119 256 -338 597 -213 331 -648 910 -907 1207 -521 597
-1044 1099 -1622 1557 -455 361 -1192 855 -1404 940 -221 89 -499 83 -710 -16
-147 -68 -271 -172 -355 -296 -26 -38 -87 -140 -137 -225 -50 -85 -153 -263
-230 -395 -77 -132 -204 -350 -283 -485 -78 -135 -175 -301 -215 -370 -40 -69
-117 -201 -170 -295 -54 -93 -119 -206 -145 -250 -26 -44 -92 -159 -147 -255
-56 -96 -149 -258 -208 -360 -60 -102 -135 -232 -168 -290 -32 -58 -83 -145
-112 -195 -29 -49 -102 -175 -163 -280 -466 -803 -468 -806 -599 -939 -183
-186 -404 -327 -643 -411 -238 -82 -413 -111 -633 -102 -222 8 -396 48 -607
140 -199 86 -348 188 -511 350 -130 129 -213 245 -295 412 -257 524 -242 1081
44 1628 47 91 364 644 450 787 44 72 136 233 527 910 99 173 206 358 237 410
118 203 444 768 476 828 48 90 90 219 109 336 42 268 -67 572 -274 766 -109
102 -257 181 -404 214 -168 39 -960 65 -1394 46z"/><path d="M4238 20560 c-118 -25 -149 -36 -248 -86 -153 -78 -271 -195 -382
-379 -63 -102 -314 -582 -395 -755 -312 -657 -552 -1296 -753 -1999 -154 -540
-236 -919 -330 -1531 -11 -71 -28 -208 -65 -515 -22 -186 -34 -361 -54 -760
-13 -270 -12 -765 3 -1070 13 -252 18 -302 40 -382 73 -266 245 -469 498 -588
88 -41 162 -62 284 -77 78 -10 107 -9 194 5 56 9 140 30 186 46 80 27 299 147
637 348 87 52 215 127 285 167 70 40 204 118 297 173 94 55 280 164 415 243
565 330 1210 711 1355 801 89 55 314 158 430 197 162 54 437 102 587 102 206
0 518 -79 728 -185 417 -210 736 -606 853 -1060 74 -286 76 -519 8 -822 -75
-332 -264 -663 -511 -897 -97 -91 -168 -142 -340 -243 -80 -48 -203 -121 -275
-163 -71 -43 -191 -112 -265 -155 -74 -42 -187 -108 -250 -145 -191 -112 -483
-281 -700 -405 -368 -211 -1063 -617 -1260 -735 -134 -81 -565 -331 -820 -476
-312 -178 -415 -242 -480 -302 -135 -122 -234 -299 -275 -495 -22 -100 -19
-274 5 -377 41 -174 82 -251 321 -610 284 -427 674 -945 948 -1259 771 -885
1554 -1585 2446 -2187 505 -340 641 -407 891 -435 214 -24 449 48 629 191 113
90 158 158 477 725 114 203 423 740 518 900 42 72 114 195 160 275 46 80 114
197 150 260 37 63 84 147 105 185 21 39 59 106 85 150 67 112 690 1204 868
1520 168 300 200 347 325 488 177 198 464 381 737 471 362 118 702 120 1052 5
340 -111 666 -363 862 -667 99 -152 200 -392 241 -572 23 -104 45 -277 45
-359 0 -182 -48 -445 -115 -631 -51 -140 -134 -313 -218 -454 -83 -139 -240
-409 -465 -801 -63 -110 -133 -231 -157 -270 -40 -66 -171 -292 -478 -825 -71
-124 -166 -288 -212 -365 -89 -153 -189 -327 -272 -475 -179 -318 -174 -658
13 -942 162 -246 417 -385 739 -402 972 -53 1799 -9 2710 145 1324 222 2637
691 3845 1372 240 135 257 146 351 244 90 92 126 143 179 255 67 140 83 235
82 503 -2 1298 -408 2633 -1120 3685 -295 436 -527 715 -903 1086 -487 479
-1105 911 -1709 1194 -436 205 -725 312 -1131 419 -1124 296 -2375 278 -3519
-50 -390 -113 -735 -246 -1115 -434 -570 -281 -1052 -612 -1566 -1074 -189
-169 -200 -176 -236 -159 -20 10 -29 22 -31 45 -3 34 16 61 188 258 297 340
593 746 816 1119 109 180 335 637 412 831 160 402 295 858 363 1224 88 480
132 926 131 1341 -1 452 -33 803 -114 1245 -160 882 -494 1720 -968 2431 -585
878 -1286 1529 -2230 2071 -634 364 -1385 644 -2060 767 -187 35 -572 82 -768
96 -252 17 -601 12 -704 -10z"/></g></svg>
