<svg xmlns="http://www.w3.org/2000/svg" width="176" height="34" fill="none"><g fill="#1A1A1A" clip-path="url(#a)"><path d="M169.915 11.042c1.823 0 3.288.562 4.396 1.686 1.127 1.107 1.69 2.659 1.69 4.657v8.699h-3.754v-8.19c0-1.16-.294-2.043-.884-2.65-.59-.624-1.395-.937-2.413-.937-1.019 0-1.833.313-2.44.937-.59.607-.885 1.49-.885 2.65v8.19h-3.754v-8.19c0-1.16-.295-2.043-.885-2.65-.589-.624-1.393-.937-2.412-.937-1.037 0-1.859.313-2.467.937-.589.607-.884 1.49-.884 2.65v8.19h-3.754V11.256h3.754v1.793a5.015 5.015 0 0 1 1.85-1.472 5.907 5.907 0 0 1 2.52-.535c1.161 0 2.198.25 3.11.75a5.084 5.084 0 0 1 2.118 2.087c.482-.856 1.179-1.543 2.091-2.06a6.074 6.074 0 0 1 3.003-.777Zm-21.212.214v14.828h-3.781V24.21c-.483.642-1.117 1.151-1.903 1.526a5.914 5.914 0 0 1-2.52.535c-1.162 0-2.19-.24-3.083-.723-.894-.5-1.601-1.222-2.118-2.167-.501-.964-.751-2.106-.751-3.427v-8.698h3.753v8.163c0 1.178.295 2.088.885 2.73.59.625 1.394.937 2.413.937 1.036 0 1.85-.312 2.439-.937.59-.642.885-1.552.885-2.73v-8.163h3.781Zm-22.01 15.069c-1.215 0-2.306-.214-3.271-.642-.965-.446-1.733-1.044-2.305-1.793a4.555 4.555 0 0 1-.912-2.49h3.78c.072.572.349 1.044.832 1.42.5.374 1.117.561 1.849.561.715 0 1.269-.143 1.663-.428.411-.286.617-.651.617-1.098 0-.481-.251-.838-.751-1.07-.483-.25-1.26-.518-2.333-.803-1.108-.268-2.02-.544-2.735-.83a4.866 4.866 0 0 1-1.823-1.311c-.5-.59-.75-1.383-.75-2.382 0-.821.232-1.57.697-2.249.482-.678 1.161-1.213 2.037-1.606.894-.392 1.939-.588 3.137-.588 1.77 0 3.182.446 4.236 1.338 1.055.874 1.635 2.06 1.743 3.56h-3.593c-.053-.59-.303-1.053-.751-1.392-.428-.357-1.01-.536-1.742-.536-.679 0-1.206.125-1.582.375-.357.25-.536.598-.536 1.044 0 .5.25.883.75 1.151.501.25 1.278.509 2.333.776 1.072.268 1.958.544 2.655.83a4.523 4.523 0 0 1 1.795 1.338c.519.589.787 1.374.805 2.355 0 .857-.242 1.624-.724 2.302-.465.678-1.144 1.214-2.038 1.606-.876.375-1.903.562-3.083.562ZM107.53 13.398c.483-.678 1.145-1.24 1.985-1.687.858-.463 1.831-.695 2.922-.695 1.269 0 2.413.312 3.432.936 1.036.625 1.85 1.517 2.44 2.677.607 1.142.911 2.471.911 3.988s-.304 2.864-.911 4.041c-.59 1.16-1.404 2.061-2.44 2.704-1.019.642-2.163.963-3.432.963-1.091 0-2.056-.223-2.896-.669-.822-.446-1.492-1.008-2.011-1.686v9.18h-3.753V11.258h3.753v2.14Zm7.856 5.219c0-.892-.187-1.66-.563-2.302-.357-.66-.84-1.16-1.448-1.499a3.803 3.803 0 0 0-1.93-.508c-.68 0-1.323.178-1.93.535-.59.34-1.073.839-1.448 1.499-.358.66-.537 1.436-.537 2.329 0 .892.179 1.668.537 2.328.375.66.858 1.169 1.448 1.526.607.339 1.25.508 1.93.508.697 0 1.341-.178 1.93-.535a3.845 3.845 0 0 0 1.448-1.526c.376-.66.563-1.445.563-2.355ZM99.157 9.49c-.661 0-1.215-.206-1.662-.616-.43-.429-.643-.955-.643-1.58 0-.624.214-1.142.643-1.552.447-.428 1-.642 1.662-.642.662 0 1.207.214 1.635.642.448.41.671.928.671 1.552a2.1 2.1 0 0 1-.671 1.58c-.428.41-.973.615-1.635.615Zm1.851 1.766v14.828h-3.754V11.256h3.754ZM87.69 26.325c-1.43 0-2.717-.312-3.86-.936a7.034 7.034 0 0 1-2.709-2.704c-.643-1.16-.965-2.498-.965-4.014 0-1.517.33-2.855.992-4.015a6.98 6.98 0 0 1 2.762-2.677c1.162-.642 2.458-.963 3.887-.963 1.43 0 2.726.32 3.888.963a6.801 6.801 0 0 1 2.734 2.677c.68 1.16 1.02 2.498 1.02 4.014 0 1.517-.35 2.855-1.046 4.015a7.117 7.117 0 0 1-2.789 2.704c-1.161.624-2.466.936-3.914.936Zm0-3.265c.68 0 1.313-.16 1.904-.482.607-.339 1.09-.838 1.448-1.499.357-.66.536-1.463.536-2.409 0-1.41-.376-2.489-1.127-3.238-.732-.767-1.635-1.151-2.708-1.151-1.072 0-1.975.384-2.708 1.15-.714.75-1.072 1.83-1.072 3.24 0 1.41.349 2.498 1.046 3.265.715.75 1.609 1.124 2.68 1.124Zm-16.158 3.265c-1.43 0-2.717-.312-3.86-.936a7.034 7.034 0 0 1-2.709-2.704c-.643-1.16-.965-2.498-.965-4.014 0-1.517.33-2.855.992-4.015a6.98 6.98 0 0 1 2.761-2.677c1.162-.642 2.458-.963 3.888-.963 1.43 0 2.726.32 3.888.963a6.8 6.8 0 0 1 2.734 2.677c.68 1.16 1.02 2.498 1.02 4.014 0 1.517-.35 2.855-1.047 4.015a7.119 7.119 0 0 1-2.788 2.704c-1.162.624-2.466.936-3.914.936Zm0-3.265c.679 0 1.314-.16 1.903-.482.608-.339 1.09-.838 1.448-1.499.358-.66.536-1.463.536-2.409 0-1.41-.375-2.489-1.126-3.238-.733-.767-1.635-1.151-2.708-1.151-1.072 0-1.975.384-2.707 1.15-.715.75-1.073 1.83-1.073 3.24 0 1.41.349 2.498 1.046 3.265.715.75 1.608 1.124 2.68 1.124Zm-16.158 3.265c-1.43 0-2.717-.312-3.861-.936a7.034 7.034 0 0 1-2.708-2.704c-.643-1.16-.965-2.498-.965-4.014 0-1.517.33-2.855.992-4.015a6.98 6.98 0 0 1 2.761-2.677c1.162-.642 2.458-.963 3.888-.963 1.43 0 2.726.32 3.887.963a6.8 6.8 0 0 1 2.735 2.677c.68 1.16 1.019 2.498 1.019 4.014 0 1.517-.349 2.855-1.046 4.015a7.119 7.119 0 0 1-2.788 2.704c-1.162.624-2.466.936-3.914.936Zm0-3.265c.679 0 1.313-.16 1.903-.482.608-.339 1.09-.838 1.448-1.499.357-.66.536-1.463.536-2.409 0-1.41-.375-2.489-1.126-3.238-.733-.767-1.635-1.151-2.708-1.151-1.072 0-1.975.384-2.708 1.15-.715.75-1.072 1.83-1.072 3.24 0 1.41.349 2.498 1.046 3.265.715.75 1.608 1.124 2.68 1.124Zm-14.21.053h6.166v2.97h-9.92V7.402h3.754v15.712Z"/><path d="M64.988 28.076a7.144 7.144 0 0 0 6.771 4.856h.392c3.944 0 7.142-3.192 7.142-7.13V25.4h-3.872v.403a3.267 3.267 0 0 1-3.27 3.265h-.392c-.92 0-1.752-.38-2.346-.99h-4.425ZM12.754 0l4.637 4.533L0 21.533v-9.066L12.754 0Z"/><path d="M2.473 23.95 12.753 34l12.754-12.467v-9.067l-8.116-7.933L0 21.533l.004.004L17.39 4.533v13.034l-7.826 7.65v-8.105L2.473 23.95Z"/></g><defs><clipPath id="a"><path fill="#fff" d="M0 0h176v34H0z"/></clipPath></defs></svg>