<svg xmlns="http://www.w3.org/2000/svg" width="84" height="108" fill="none"><path fill="#EFCCFF" stroke="#1A1A1A" stroke-linecap="round" stroke-linejoin="round" stroke-miterlimit="10" stroke-width="1.666" d="M35.252 51.8c.522-.567 1.232-1.047 2.172-1.466.2-.09.297-.318.222-.524a17.87 17.87 0 0 0-.424-1.052 18.38 18.38 0 0 0-2.412-3.876 18.43 18.43 0 0 0-3.273-3.065c-1.092-.772-2.12-1.345-3.14-1.754l-.013-.005a6.096 6.096 0 0 0-1.16-.3l-.027-.003a4.525 4.525 0 0 0-.893.016l-.03.005a4.716 4.716 0 0 0-.919.28 5.511 5.511 0 0 0-.977.616 6.465 6.465 0 0 0-.925.995 6.81 6.81 0 0 0-.7 1.296l-.007.018a6.712 6.712 0 0 0-.321 1.358 8.98 8.98 0 0 0 .058 2.053c.175 1.028.508 2.09 1.021 3.253.44.956.96 1.883 1.455 2.742l.234.406c.917 1.585 1.866 3.224 2.463 4.968.243.71.422 1.463.595 2.192.24 1.008.488 2.05.913 3.037l.007.014c.218.458.473.877.756 1.245l.014.018a5.694 5.694 0 0 0 .875.82 6.18 6.18 0 0 0 1.102.595l.019.007c.457.166.936.28 1.424.342l.02.002a6.768 6.768 0 0 0 1.436-.038c.244-.044.49-.103.732-.175.255-.076.513-.17.764-.275l.016-.008a8.082 8.082 0 0 0 1.542-.964l.012-.01c.37-.315.717-.666 1.031-1.04a.416.416 0 0 0-.085-.612c-.41-.28-.79-.587-1.13-.913-1.28-1.226-2.308-2.913-2.974-4.88-.25-.74-.535-1.715-.51-2.687.026-1.01.384-1.92 1.037-2.63Z"/><path fill="#EFCCFF" stroke="#1A1A1A" stroke-linecap="round" stroke-linejoin="round" stroke-miterlimit="10" stroke-width="1.666" d="M77.773 64.437a22.592 22.592 0 0 0-.115-.278 1.434 1.434 0 0 0-.059-.116 1.363 1.363 0 0 1-.045-.088.399.399 0 0 0-.035-.112l-.069-.145a20.388 20.388 0 0 0-.42-.833 17.218 17.218 0 0 0-1.4-2.204c-.079-.104-.16-.206-.24-.307-.053-.067-.107-.134-.159-.202l-.003.003a8.144 8.144 0 0 0-.29-.338 14.575 14.575 0 0 0-1.981-1.839c-.073-.056-.146-.11-.22-.165l-.089-.066-.14-.098a17.727 17.727 0 0 0-.548-.365 22.65 22.65 0 0 0-2.567-1.4c-.4-.188-.812-.372-1.264-.563a47.48 47.48 0 0 0-1.021-.417l-.172-.068-.053-.021c-1.917-.783-3.941-1.355-5.49-1.767a67.241 67.241 0 0 0-5.682-1.24 81.525 81.525 0 0 0-4.331-.636c-.246-.03-.492-.06-.737-.087l-.12-.014a7.866 7.866 0 0 0-.14-.015l-.26-.028a100.96 100.96 0 0 0-5.855-.467c-1.225-.058-2.212-.051-3.106.023a14.56 14.56 0 0 0-.833.091l-.049.007a9.145 9.145 0 0 0-.513.094c-.19.04-.388.087-.605.146l-.01.003a.418.418 0 0 0-.195.124.663.663 0 0 1-.278.187l-.016.005a.465.465 0 0 1-.255-.002.415.415 0 0 0-.262.014l-.275.112-.057.023a8.038 8.038 0 0 0-.757.411 7.81 7.81 0 0 0-.581.401.382.382 0 0 0-.043.037c-.014.014-.03.026-.044.039a4.505 4.505 0 0 0-.312.308c-.066.073-.126.146-.184.216l-.043.052a.492.492 0 0 0-.044.065c-.008.015-.018.03-.027.044a3.586 3.586 0 0 0-.215.396l-.03.073-.008.022a.403.403 0 0 0-.02.055 3.722 3.722 0 0 0-.116.465.897.897 0 0 0-.038.374l.001.024a5.11 5.11 0 0 0 .036.747l.002.044a.372.372 0 0 0 .014.087l.003.012c.038.2.087.439.151.684a14.177 14.177 0 0 0 .746 2.104 12.096 12.096 0 0 0 .86 1.539c.141.212.288.42.438.616l.088.113.048.063a9.64 9.64 0 0 0 1.508 1.45l.035.027a.43.43 0 0 0 .034.024l.046.032c.22.149.406.268.588.375a11.37 11.37 0 0 0 1.536.75l.103.04a17.065 17.065 0 0 0 .836.29c.394.127.825.25 1.317.38.767.2 1.586.39 2.503.58 1.418.292 2.866.54 4.266.78 1.851.316 3.765.643 5.618 1.077 1.755.41 3.32.896 4.787 1.487a20.175 20.175 0 0 1 4.371 2.43.35.35 0 0 1 .134.255.743.743 0 0 1-.158.53.546.546 0 0 1-.244.143.561.561 0 0 1-.147.024c-.133.003-.237-.04-.422-.173a.715.715 0 0 0-.034-.025c-.017-.011-.034-.024-.05-.036l-.043-.03a17.78 17.78 0 0 0-.805-.533 18.55 18.55 0 0 0-1.048-.608 21.96 21.96 0 0 0-2.297-1.064 1.803 1.803 0 0 0-.12-.044l-.012-.006-.01-.004a.208.208 0 0 0-.018-.008l-.018-.008-.03-.01-.002-.001c-.089-.033-.176-.066-.266-.098a31.647 31.647 0 0 0-1.748-.57c-1.827-.536-3.66-.9-5.051-1.158l-.496-.09a.413.413 0 0 0-.343.092.415.415 0 0 0-.29-.205c-.535-.093-1.07-.184-1.606-.275-2.434-.412-4.95-.839-7.351-1.53a16.902 16.902 0 0 1-2.305-.83.416.416 0 0 0-.503.127c-.863 1.131-1.934 2.01-3.095 2.54-.355.162-.696.29-1.045.395a7.238 7.238 0 0 1-1.196.25 6.655 6.655 0 0 1-1.966-.074c-1.318-.233-2.549-.889-3.377-1.798-.513-.562-.92-1.215-1.286-2.056-.302-.694-.506-1.44-.666-2.078-.067-.268-.131-.536-.195-.804-.108-.452-.22-.92-.346-1.379a15.997 15.997 0 0 0-.771-2.163 23.999 23.999 0 0 0-.433-.893c-.426-.833-.9-1.655-1.358-2.45-.97-1.684-1.972-3.425-2.541-5.31a10.517 10.517 0 0 1-.465-2.853.417.417 0 0 0-.217-.358.452.452 0 0 1-.18-.173 32.075 32.075 0 0 0-1.279-2.07 29.373 29.373 0 0 0-2.94-3.706 26.776 26.776 0 0 0-1.645-1.629 16.978 16.978 0 0 0-1.203-.986l-.044-.033-.05-.035c-.072-.05-.143-.1-.216-.148a10.732 10.732 0 0 0-1.879-1.011.384.384 0 0 0-.05-.018l-.057-.018-.104-.034a6.212 6.212 0 0 0-.623-.178 6.67 6.67 0 0 0-.493-.097l-.132-.018a.378.378 0 0 0-.044-.005l-.025-.003a5.536 5.536 0 0 0-1.197.03l-.016.002a.509.509 0 0 0-.05.01l-.049.01c-.024.007-.049.012-.073.017l-.12.028a5.047 5.047 0 0 0-.66.213l-.022.008-.032.014c-.015.008-.045.02-.074.033l-.095.043a5.643 5.643 0 0 0-.752.467l-.05.04-.085.066a.372.372 0 0 0-.033.026l-.021.019c-.023.02-.046.039-.068.06-.89.804-1.517 1.853-1.864 3.115a10.473 10.473 0 0 0-.236 1.181 8.29 8.29 0 0 0-.038.655c-.013.75.07 1.472.26 2.276.428 1.803 1.228 3.395 1.954 4.715a134.495 134.495 0 0 0 1.906 3.317c.237.405.475.81.71 1.215l16.013 27.518c.23.394.46.799.681 1.19.59 1.04 1.201 2.114 1.88 3.13.853 1.276 1.835 2.466 3.09 3.745.316.323.651.63.976.926.33.303.673.617.986.94a12.484 12.484 0 0 0 1.575 1.359l-.002.002.086.06.2.14a13.391 13.391 0 0 0 2.47 1.317l.166.063.174.06a10.723 10.723 0 0 0 1.723.445l.603.09.024.003c.133.013.267.023.4.031a.798.798 0 0 1 .25.055c.03.012.062.02.094.025.886.132 1.625.24 2.383.335 1.215.156 2.13.236 2.964.26.465.012.968-.005 1.49-.026.485-.024.993-.056 1.51-.098.94-.077 1.934-.183 3.039-.32.934-.118 1.937-.254 3.063-.414l.826-.117-.4.184-.36.157c-.944.407-1.932.769-2.938 1.077l-.132.04a27.08 27.08 0 0 1-2.925.7c-.551.097-1.066.17-1.57.225a18.79 18.79 0 0 1-1.609.105c-.987.004-2.03-.1-3.189-.318a25.057 25.057 0 0 1-2.863-.73.417.417 0 0 0-.453.654c.065.083.131.166.204.255l.11.131a19.915 19.915 0 0 0 1.458 1.542c.34.323.694.64 1.057.94.198.165.402.32.6.469.174.13.338.254.5.385h0l.054.039.145.1a20.698 20.698 0 0 0 .888.583 21.301 21.301 0 0 0 3.477 1.75l.048.019.15.056a21.154 21.154 0 0 0 4.148 1.075c.124.019.25.034.374.05.122.015.244.03.366.048.021.004.042.005.062.006l.05.005a19.298 19.298 0 0 0 4.636-.112l.018-.002.181-.03.35-.065c.206-.04.417-.085.646-.138a26.81 26.81 0 0 0 1.621-.428 30.81 30.81 0 0 0 3.613-1.335l.132-.058.253-.117a32.451 32.451 0 0 0 3.446-1.86 29.585 29.585 0 0 0 2.932-2.076l.12-.098.028-.024c.309-.26.609-.524.893-.787a21.014 21.014 0 0 0 1.752-1.825 17.936 17.936 0 0 0 .838-1.07 14.215 14.215 0 0 0 .49-.743c.422-.682.776-1.38 1.052-2.07l.006-.013.041-.112a11.51 11.51 0 0 0 .264-.816 10.675 10.675 0 0 0 .3-1.44l.003-.026a.453.453 0 0 0 .01-.062l.012-.151c.01-.12.021-.241.028-.363.006-.137.034-.272.062-.414l.029-.147a.422.422 0 0 0 .023-.115c0-.015.003-.03.004-.05a.89.89 0 0 0 .01-.198c.002-.042.004-.083.004-.125a3.727 3.727 0 0 0-.024-.4.37.37 0 0 0-.005-.025v-.023l-.003-.02a.42.42 0 0 0-.037-.154 3.297 3.297 0 0 0-.091-.313 1.036 1.036 0 0 0-.04-.093l-.014-.03a.473.473 0 0 0-.038-.093 3.4 3.4 0 0 0-.231-.373c-.055-.105-.137-.178-.198-.233a.656.656 0 0 1-.02-.018l-.018-.02a.416.416 0 0 0-.608-.007c-.268.28-.552.554-.844.814a18.173 18.173 0 0 1-5.388 3.306l.172-.152c.427-.374.863-.745 1.284-1.103l.247-.21.482-.407c.84-.71 1.71-1.445 2.533-2.184a38.87 38.87 0 0 0 1.438-1.343 24.73 24.73 0 0 0 1.348-1.427c.18-.21.362-.434.54-.665a.408.408 0 0 0 .03-.047 2.05 2.05 0 0 1 .03-.048l.047-.082a14.044 14.044 0 0 0 .774-1.626l.025-.067c.027-.074.055-.148.08-.223a11.76 11.76 0 0 0 .569-2.324l.009-.073.006-.061.011-.124c.02-.258.038-.502.066-.753.024-.083.026-.169.029-.245v-.017a23.097 23.097 0 0 0 .106-2.204 23.371 23.371 0 0 0-.238-3.318l-.01-.067a1.178 1.178 0 0 0-.054-.348l-.008-.032a21.75 21.75 0 0 0-.264-1.283 21.686 21.686 0 0 0-1.01-3.177ZM51.755 75.06l.06.201c.04.154.093.294.144.43l.06.161.105.292.078.18.046.105.15.344c.03.07.063.15.108.23l.072.142c.065.125.13.25.191.379a.378.378 0 0 0 .011.02c.482.867.897 1.515 1.345 2.1.042.055.083.112.123.168.08.113.165.23.263.343l.078.096c.103.124.205.249.298.369.097.131.2.247.301.358l.128.145.417.48c.064.075.13.144.194.212a12.908 12.908 0 0 1-.235-.143l-.537-.372-.05-.035a6.19 6.19 0 0 1-.455-.343l-.01-.008a20.496 20.496 0 0 1-.407-.341l-.109-.092a5.386 5.386 0 0 1-.41-.382l-.048-.048a21.977 21.977 0 0 0-.168-.167c-.103-.103-.202-.2-.295-.3l-.43-.508-.086-.1a2.026 2.026 0 0 1-.121-.152c-.044-.059-.086-.118-.129-.178l-.294-.415c-.052-.075-.102-.144-.14-.212l-.008-.013c-.086-.14-.17-.284-.255-.427l-.102-.174a1.852 1.852 0 0 1-.097-.184c-.013-.03-.19-.393-.19-.393l-.044-.09a5.556 5.556 0 0 1-.096-.206l-.12-.31-.075-.196a4.22 4.22 0 0 1-.149-.428l-.006-.02a9.39 9.39 0 0 1-.449-2.634c-.012-.517.003-.94.049-1.34a10.198 10.198 0 0 1 1.271-3.977l-.062.267a16.45 16.45 0 0 0-.386 2.519 6.06 6.06 0 0 1-.013.19c-.01.142-.021.29-.02.437 0 .07-.002.14-.004.21-.005.132-.01.267-.002.41.008.449.032.85.074 1.23l.013.1c.008.063.017.125.024.195l.009.078c.008.073.017.156.036.245l.103.575a.288.288 0 0 0 .004.023l.139.582c.033.128.07.252.108.372Z"/><path fill="#EFCCFF" stroke="#1A1A1A" stroke-linecap="round" stroke-linejoin="round" stroke-miterlimit="10" stroke-width="1.666" d="M39.213 49.737a13.95 13.95 0 0 1 1.6-.26c1.904-.206 3.874-.05 5.78.1l.321.025c1.054.083 2.109.18 3.135.288a.415.415 0 0 0 .457-.467c-.036-.279-.075-.56-.117-.838a29.185 29.185 0 0 0-.27-1.449 25.838 25.838 0 0 0-1.639-5.085c-.2-.44-.398-.841-.6-1.228a25.375 25.375 0 0 0-2.751-4.21c-.843-1.007-1.737-1.86-2.667-2.543a10.217 10.217 0 0 0-1.99-1.093l-.014-.005a7.816 7.816 0 0 0-1.683-.413 7.02 7.02 0 0 0-1.527.03l-.02.004a6.992 6.992 0 0 0-1.48.443l-.016.008c-.484.23-.943.516-1.365.848l-.014.012c-.373.321-.711.68-1.004 1.064l-.012.016a6.73 6.73 0 0 0-.676 1.243l-.007.018a7.092 7.092 0 0 0-.367 1.535 7.23 7.23 0 0 0 .04 1.57l.003.019c.09.496.232.978.422 1.435l.03.063c.02.045.042.09.065.136a.826.826 0 0 1 .095.3c.01.111.065.215.153.285.815.66 1.576 1.4 2.262 2.197 1.486 1.73 2.62 3.645 3.373 5.69.073.197.28.308.483.262Zm12.837.387.215.027c.241.03.482.06.723.093 4.25.577 8 1.401 11.461 2.518 1.145.37 2.239.76 3.25 1.161a.419.419 0 0 0 .475-.12.416.416 0 0 0 .031-.49c-.998-1.576-1.809-3.339-2.47-4.855-1.126-2.586-2.036-5.321-2.8-7.682-1.032-3.184-1.999-6.432-2.89-9.467-.383-1.309-.764-2.618-1.145-3.928-.548-1.884-1.114-3.832-1.681-5.745l-.346-1.172c-.776-2.632-1.577-5.354-2.567-7.962-.782-2.064-1.55-3.543-2.565-4.947-.12-.165-.245-.327-.366-.483l-.045-.058a.422.422 0 0 0-.045-.052l-.062-.074a9.692 9.692 0 0 0-1.301-1.256l-.148-.113a6.928 6.928 0 0 0-.468-.305 6.343 6.343 0 0 0-.722-.366l-.055-.024a.348.348 0 0 0-.03-.012l-.102-.034a5.117 5.117 0 0 0-.865-.205 5.44 5.44 0 0 0-.955.014l-.032.007a5.458 5.458 0 0 0-.454.112 4.622 4.622 0 0 0-.214.069c-.039.013-.077.028-.115.042l-.104.04a.473.473 0 0 0-.039.017l-.076.036-.106.051a5.65 5.65 0 0 0-.872.559l-.033.025a.411.411 0 0 0-.052.044l-.039.035c-.069.063-.139.126-.206.19a6.623 6.623 0 0 0-.682.775c-.005.005-.008.01-.011.015l-.074.11a8.257 8.257 0 0 0-.784 1.502l-.008.02-.01.027a11.841 11.841 0 0 0-.25.753c-.119.406-.221.83-.314 1.296a18.528 18.528 0 0 0-.213 1.32l-.014.113-.044.48a23.488 23.488 0 0 0-.066 2.085c.013 1.36.125 2.806.34 4.421.043.326.093.671.153 1.058l.036.226.043.26a61.795 61.795 0 0 0 .56 2.91c.31 1.444.677 2.952 1.119 4.609.71 2.66 1.485 5.2 2.426 8.246a.519.519 0 0 1 .018.224.417.417 0 0 0 .082.31c1.212 1.587 2.27 3.412 3.146 5.424.997 2.291 1.65 4.83 2 7.76a.418.418 0 0 0 .361.366Z"/><path fill="#EFCCFF" d="M77.16 55.575a19.483 19.483 0 0 0-3.015-2.296 3.132 3.132 0 0 0-.386-.291c-.022-.019-.043-.036-.064-.056a6.069 6.069 0 0 1-.428-.426c-.072-.08-.15-.17-.22-.251l-.046-.058-.096-.123a13.982 13.982 0 0 1-.492-.684c-.649-.958-1.26-2.053-1.925-3.448a35.78 35.78 0 0 1-.208-.444l-.097-.211-.04-.09a53.363 53.363 0 0 1-1.078-2.622 99.279 99.279 0 0 1-1.334-3.794c-1.062-3.189-2.028-6.4-2.913-9.396-.522-1.767-1.046-3.57-1.553-5.312a1607.88 1607.88 0 0 0-1.342-4.596l-.213-.721c-.821-2.794-1.67-5.684-2.655-8.513-.86-2.474-1.69-4.31-2.69-5.956-1.323-2.176-2.81-3.77-4.543-4.874C49.663.039 47.106-.356 44.807.329c-.236.07-.47.153-.698.245-2.404.974-4.334 2.908-5.437 5.446-1.255 2.889-1.69 6.24-1.37 10.548.218 2.936.755 6.1 1.688 9.957.121.5.247 1.005.38 1.522a10.444 10.444 0 0 0-4.355.406 10.631 10.631 0 0 0-4.645 2.977 10.304 10.304 0 0 0-2.188 3.87 8.174 8.174 0 0 0-3.586.192l-.073.021a8.787 8.787 0 0 0-3.248 1.815 30.723 30.723 0 0 0-3.372-3.488c-3.587-3.157-7.322-4.295-10.801-3.293l-.074.022c-1.926.574-3.611 1.806-4.875 3.561-1.079 1.5-1.807 3.358-2.049 5.231-.588 4.543 1.418 8.494 3.345 11.841 2.454 4.263 4.973 8.578 7.41 12.751 1.212 2.076 2.424 4.152 3.633 6.23l5.56 9.554c.356.614.717 1.252 1.067 1.869 1.443 2.55 2.936 5.186 4.933 7.577.604.724 1.24 1.424 1.89 2.08.342.346.677.648 1 .94.256.23.498.447.708.657l.186.186c.218.22.463.47.75.723a17.427 17.427 0 0 0 4.46 2.868 23.735 23.735 0 0 0 4.435 4.851 25.089 25.089 0 0 0 5.745 3.581c2.136.955 4.32 1.599 6.49 1.916 2.352.343 4.647.345 6.82.006a27.02 27.02 0 0 0 3.534-.806 32.205 32.205 0 0 0 2.119-.714 37.038 37.038 0 0 0 5.383-2.532 32.861 32.861 0 0 0 4.937-3.47 23.948 23.948 0 0 0 4.046-4.4c1.206-1.707 2.06-3.52 2.539-5.391.122-.48.219-.968.286-1.45.039-.279.072-.566.097-.855.102-.428.127-.807.144-1.066l.006-.092a7.112 7.112 0 0 0-.39-2.906c1.428-2.288 2.274-4.76 2.468-7.247l.002-.034c.013-.106.02-.216.023-.33.127-1.107.187-2.126.185-3.114a26.967 26.967 0 0 0-.733-6.162c-1.037-4.374-3.119-8.124-6.021-10.847Z"/><path fill="#1A1A1A" d="M80.727 75.556c0 .034-.003.069-.004.103.005.059.018.06.006-.145l-.002.014v.028ZM35.902 53.633c.028-.082.09-.139 0 0Z"/><path fill="#1A1A1A" d="M75.106 57.765a16.576 16.576 0 0 0-2.75-2.061 1.46 1.46 0 0 0-.155-.123c.004.005-.002.003-.023-.014l-.009-.005a.163.163 0 0 1-.05-.036l-.001-.004-.088-.066a6.666 6.666 0 0 1-.338-.285 9.144 9.144 0 0 1-.641-.637 11.577 11.577 0 0 1-.325-.371l-.004-.005a.725.725 0 0 1-.016-.022c-.061-.077-.122-.153-.181-.23-.209-.271-.407-.55-.599-.832-.823-1.215-1.518-2.516-2.148-3.84-.076-.158-.15-.317-.223-.476l-.1-.219-.03-.065a52.365 52.365 0 0 1-1.167-2.835c-.49-1.292-.94-2.6-1.376-3.91-1.048-3.144-2.005-6.318-2.944-9.494-.975-3.301-1.925-6.609-2.897-9.911-.895-3.043-1.78-6.098-2.822-9.095-.646-1.856-1.397-3.7-2.42-5.383-.924-1.52-2.075-2.937-3.589-3.9-1.47-.935-3.33-1.255-4.973-.59-1.75.71-3.064 2.144-3.81 3.861-1.234 2.838-1.356 6.083-1.13 9.129.238 3.195.86 6.363 1.613 9.473.605 2.503 1.312 4.979 2.055 7.444-1.246-1.007-2.675-1.798-4.239-2.12-1.256-.26-2.572-.221-3.797.17a7.677 7.677 0 0 0-3.334 2.133c-1.472 1.626-2.122 3.9-1.812 6.055a15.01 15.01 0 0 0-1.207-.617c-.66-.3-1.353-.56-2.077-.649a5.139 5.139 0 0 0-2.074.143c-1.179.34-2.241 1.116-2.995 2.075a7.622 7.622 0 0 0-1.141 2c-1.492-2.343-3.296-4.533-5.37-6.359-2.151-1.891-5.041-3.51-7.987-2.66-2.76.794-4.498 3.58-4.85 6.312-.464 3.586 1.233 6.942 2.969 9.957 3.649 6.34 7.357 12.646 11.036 18.969l5.56 9.553c1.79 3.077 3.417 6.288 5.709 9.031.546.655 1.12 1.287 1.72 1.894.543.55 1.146 1.036 1.692 1.58.267.266.522.537.804.786 1.36 1.2 2.955 2.168 4.675 2.76a.88.88 0 0 0 .15.478 20.817 20.817 0 0 0 3.996 4.417 22.135 22.135 0 0 0 5.056 3.154c1.815.81 3.732 1.399 5.7 1.686 1.966.287 3.958.317 5.923.01 1.732-.27 3.42-.748 5.059-1.364a34.01 34.01 0 0 0 4.945-2.325 29.795 29.795 0 0 0 4.486-3.153 20.845 20.845 0 0 0 3.54-3.848c.939-1.328 1.676-2.82 2.08-4.4.094-.369.169-.743.221-1.12a14.704 14.704 0 0 0 .101-.98c.102-.25.108-.606.128-.855a3.986 3.986 0 0 0-.922-2.865c1.636-2.093 2.79-4.618 3-7.283l.01-.171a.513.513 0 0 1 .002-.103l.003-.028v-.036l.002.022.017-.149c.106-.923.169-1.848.167-2.778a23.976 23.976 0 0 0-.652-5.474c-.826-3.487-2.517-6.872-5.153-9.346ZM44.42 27.685a95.601 95.601 0 0 1-1.114-4.588 69.837 69.837 0 0 1-.557-2.892c-.014-.086-.029-.171-.042-.257l-.037-.226a53.204 53.204 0 0 1-.15-1.046 35.882 35.882 0 0 1-.337-4.37 23.318 23.318 0 0 1 .108-2.52v-.01c.002-.006.002-.013.003-.022.012-.095.023-.19.037-.283.049-.361.11-.72.18-1.078.085-.424.184-.845.306-1.26a11.178 11.178 0 0 1 .24-.725l.004-.01a7.839 7.839 0 0 1 .824-1.558 6.318 6.318 0 0 1 .64-.727c.066-.064.135-.126.204-.188l.044-.041.044-.033a5.111 5.111 0 0 1 .812-.521l.179-.086.036-.014c.057-.02.113-.043.17-.063A4.634 4.634 0 0 1 46.627 5l.041-.009c.01 0 .028 0 .058-.003.205-.016.407-.026.612-.016.061.003.2.02.131.01a4.583 4.583 0 0 1 .795.188c.033.01.066.023.1.034.082.036.164.07.245.108a5.87 5.87 0 0 1 .897.524l.156.12c.08.062.157.126.234.19a9.184 9.184 0 0 1 1.01 1.01c.038.043.18.223.105.124.132.17.265.341.392.516 1.129 1.56 1.865 3.141 2.513 4.851 1.128 2.974 2 6.057 2.903 9.104.954 3.221 1.881 6.45 2.827 9.672.93 3.17 1.874 6.336 2.892 9.478.844 2.606 1.721 5.207 2.816 7.72.724 1.662 1.514 3.357 2.5 4.912a53.158 53.158 0 0 0-3.277-1.17c-3.753-1.212-7.63-2.005-11.533-2.534-.313-.043-.628-.081-.943-.12-.322-2.707-.941-5.374-2.03-7.879-.846-1.943-1.906-3.819-3.198-5.51a.928.928 0 0 0-.033-.404c-.844-2.733-1.684-5.468-2.421-8.231Zm-11.677 11.61a6.827 6.827 0 0 1-.037-1.48 6.68 6.68 0 0 1 .344-1.43c.17-.41.382-.8.634-1.165.28-.366.596-.7.945-1.002a6.841 6.841 0 0 1 1.286-.8c.447-.189.913-.33 1.39-.417a6.607 6.607 0 0 1 1.437-.03 7.454 7.454 0 0 1 1.577.39 9.716 9.716 0 0 1 1.909 1.05c.963.707 1.818 1.553 2.585 2.468a25.006 25.006 0 0 1 2.701 4.136c.209.397.404.8.591 1.208a25.41 25.41 0 0 1 1.61 4.998c.102.475.189.952.266 1.43.041.274.08.548.115.823a115.14 115.14 0 0 0-3.146-.288c-2.048-.16-4.13-.346-6.18-.123-.552.06-1.104.144-1.646.267a19.04 19.04 0 0 0-3.448-5.817 17.891 17.891 0 0 0-2.315-2.25 1.232 1.232 0 0 0-.14-.45c-.028-.056-.054-.113-.081-.17a6.527 6.527 0 0 1-.397-1.349Zm-9.85 7.027a8.539 8.539 0 0 1-.053-1.945c.058-.43.156-.85.3-1.258.175-.428.395-.835.658-1.217.253-.335.538-.642.854-.917a5.11 5.11 0 0 1 .888-.557c.263-.108.535-.19.814-.245.27-.032.54-.036.81-.014.37.055.729.154 1.08.28 1.08.432 2.104 1.035 3.055 1.706a17.992 17.992 0 0 1 3.193 2.993 17.965 17.965 0 0 1 2.352 3.782c.148.336.285.677.411 1.021-.854.382-1.673.874-2.31 1.566-.74.807-1.118 1.813-1.146 2.902-.024.959.227 1.929.532 2.83.637 1.88 1.639 3.668 3.08 5.048.37.355.767.672 1.184.956-.299.357-.627.69-.982.993a7.68 7.68 0 0 1-1.462.914 6.666 6.666 0 0 1-1.408.424 6.32 6.32 0 0 1-1.33.033 6.261 6.261 0 0 1-1.335-.32 5.726 5.726 0 0 1-1.027-.554 5.27 5.27 0 0 1-.794-.748 6.498 6.498 0 0 1-.71-1.17c-.718-1.665-.913-3.492-1.498-5.2-.66-1.93-1.715-3.688-2.73-5.446-.51-.886-1.01-1.78-1.438-2.709-.444-1.008-.802-2.059-.988-3.148Zm55.486 21.386c.1.42.186.843.26 1.267.007.04.075.269.05.295l-.02-.13.02.131.02.132c.03.219.06.438.084.657a23.038 23.038 0 0 1 .113 3.87 22.148 22.148 0 0 1-.07.902c-.003.027 0 .176-.02.192l.014-.127c-.004.043-.01.085-.015.127-.033.279-.053.549-.074.827-.003.048-.008.095-.013.142l-.01.087a11.2 11.2 0 0 1-.1.6 12.015 12.015 0 0 1-.55 1.921 13.516 13.516 0 0 1-.75 1.573c-.024.043-.05.084-.074.126-.17.22-.345.437-.526.648-.42.485-.864.949-1.325 1.402-.458.454-.936.894-1.423 1.33-.972.871-1.986 1.719-3.007 2.583-.51.433-1.024.869-1.536 1.317-.256.226-.513.452-.766.686-.254.234-.512.467-.753.729 1.367-.334 2.65-.88 3.869-1.542a18.491 18.491 0 0 0 3.42-2.403c.298-.266.588-.545.867-.835l.023.026c.043.044.13.108.154.164l-.07-.086a3.195 3.195 0 0 1 .299.454l.005.01c.01.046.049.113.062.15.044.123.08.25.106.379v-.033c0 .017.003.034.005.052l-.001-.007c0-.004-.003-.008-.003-.013.005.182.014.143.01.077a3.386 3.386 0 0 1 .006.633c-.038.252-.104.476-.118.736-.008.168-.026.335-.039.503.029-.362.002-.022-.01.063a10.432 10.432 0 0 1-.542 2.171l-.037.099a15.348 15.348 0 0 1-1.502 2.743l-.085.119a.433.433 0 0 0 .03-.044l-.025.036c-.235.318-.48.627-.735.928a20.529 20.529 0 0 1-1.718 1.789c-.303.28-.613.552-.93.817l.032-.025-.122.099a28.958 28.958 0 0 1-.788.614c-.678.509-1.381.986-2.102 1.434a31.904 31.904 0 0 1-3.653 1.951l-.127.056a28.52 28.52 0 0 1-.62.265 28.607 28.607 0 0 1-4.54 1.474 19.32 19.32 0 0 1-.972.197l-.17.029-.025.004c-.455.068-.913.117-1.372.15a18.993 18.993 0 0 1-3.156-.041c-.068-.007-.41-.058-.09-.008-.245-.038-.494-.061-.74-.098a20.883 20.883 0 0 1-4.066-1.054l-.149-.056a19.505 19.505 0 0 1-1.006-.425 21.307 21.307 0 0 1-3.318-1.879c-.047-.033-.095-.065-.142-.099a3.553 3.553 0 0 1-.11-.085l.08.064c-.36-.29-.74-.555-1.097-.85a20.65 20.65 0 0 1-2.044-1.956 20.306 20.306 0 0 1-.42-.477l-.11-.13c-.065-.08-.13-.162-.194-.244.95.302 1.918.554 2.91.743 1.058.198 2.141.33 3.27.325a18.88 18.88 0 0 0 1.65-.106 26.37 26.37 0 0 0 1.598-.23 27.549 27.549 0 0 0 3.107-.752 29.14 29.14 0 0 0 2.981-1.091l.363-.158.36-.166c.24-.111.477-.228.713-.348.47-.24.937-.492 1.385-.78-1.053.134-2.083.288-3.11.432-1.025.147-2.044.286-3.057.413a71.77 71.77 0 0 1-3.022.32c-.5.04-.998.072-1.495.096a23.35 23.35 0 0 1-1.458.026c-.947-.027-1.931-.13-2.922-.257-.786-.099-1.578-.216-2.375-.334a1.22 1.22 0 0 0-.38-.084 12.11 12.11 0 0 1-.386-.03l-.593-.088a11.03 11.03 0 0 1-.784-.166 11.081 11.081 0 0 1-.876-.262l-.168-.06-.152-.057A12.738 12.738 0 0 1 35.094 91l-.244-.17c.156.108-.12-.09-.173-.129-.486-.37-.951-.769-1.376-1.207-.628-.648-1.33-1.22-1.965-1.867-1.133-1.155-2.142-2.342-3.04-3.685-.925-1.385-1.71-2.86-2.547-4.299l-5.327-9.153L9.736 52.126c-.875-1.504-1.773-2.998-2.612-4.523-.812-1.476-1.522-2.96-1.913-4.61a8.598 8.598 0 0 1-.25-2.173 7.613 7.613 0 0 1 .037-.621l.01-.077c.057-.349.12-.693.213-1.035.301-1.097.85-2.11 1.742-2.918l.083-.072c.015-.01.132-.104.143-.111a5.12 5.12 0 0 1 .693-.43c.017-.008.152-.067.166-.075.06-.024.12-.048.182-.07.146-.051.294-.096.445-.133.062-.016.125-.028.188-.042l.055-.014.02-.003c.333-.045.67-.056 1.005-.035.043.002.085.006.128.01l.186.025a6.446 6.446 0 0 1 .84.198c.093.029.184.061.277.09l.066.022.063.027a10.255 10.255 0 0 1 1.961 1.092l.038.026.046.034a16.328 16.328 0 0 1 1.172.962c.565.508 1.101 1.05 1.62 1.604a28.79 28.79 0 0 1 2.9 3.653c.447.664.867 1.347 1.262 2.043a.865.865 0 0 0 .343.333c.018 1.003.189 1.998.482 2.967.854 2.824 2.596 5.228 3.927 7.829.148.29.29.582.425.877.3.682.552 1.38.75 2.1.197.72.355 1.45.537 2.173.183.728.389 1.454.688 2.143.348.801.769 1.522 1.36 2.17.927 1.018 2.265 1.69 3.613 1.928a7.077 7.077 0 0 0 2.09.077 7.945 7.945 0 0 0 2.362-.679c1.294-.591 2.394-1.54 3.254-2.667.76.344 1.556.62 2.361.852 2.944.847 5.986 1.288 9 1.815a10.6 10.6 0 0 0-1.7 6.068c.025.93.18 1.864.469 2.752.06.226.154.44.234.66l.127.325c.046.106.098.21.148.316l.152.313c.052.104.098.21.16.309.118.2.233.4.355.596.057.1.125.193.192.287l.199.282c.067.093.131.188.2.28.066.093.145.176.217.265l.443.521c.154.167.319.323.478.484.16.16.318.321.493.462.172.145.343.292.517.433.17.145.354.273.536.402l.549.38c.377.235.764.454 1.15.665.399.192.8.376 1.21.539a20.92 20.92 0 0 0-.904-.95c-.144-.162-.291-.318-.436-.476-.144-.159-.296-.307-.436-.468l-.416-.48c-.137-.16-.284-.309-.409-.477-.129-.166-.261-.326-.392-.487-.136-.156-.249-.331-.373-.495-.502-.654-.924-1.35-1.312-2.049-.088-.18-.18-.357-.272-.535-.048-.087-.084-.18-.123-.27l-.119-.274c-.039-.091-.082-.18-.12-.272l-.1-.28c-.066-.186-.145-.367-.194-.558-.055-.19-.118-.377-.167-.567l-.137-.575-.105-.583c-.021-.097-.027-.195-.04-.293-.011-.1-.025-.197-.038-.295a12.808 12.808 0 0 1-.07-1.194c-.012-.2.006-.4.006-.603-.003-.202.021-.404.032-.607.057-.811.188-1.629.376-2.447.075-.33.16-.66.253-.99l.493.09c1.685.312 3.365.665 5.01 1.148a29.914 29.914 0 0 1 2.016.67h.002l-.004-.002.008.004-.004-.002c.163.1.112.058.046.022.04.016.085.03.123.044.77.306 1.525.65 2.254 1.044a18.527 18.527 0 0 1 1.81 1.115c.035.024.069.05.104.073a.438.438 0 0 1-.017-.012l.018.013c.215.158.414.272.694.266.244-.005.537-.123.7-.312.312-.365.398-1.068-.047-1.393a20.521 20.521 0 0 0-4.462-2.48 33.105 33.105 0 0 0-4.846-1.507c-3.27-.764-6.608-1.181-9.895-1.86a48.7 48.7 0 0 1-2.482-.574 25.154 25.154 0 0 1-1.296-.374c-.226-.072-.45-.148-.672-.23-.045-.015-.089-.032-.133-.048-.119-.05-.238-.097-.356-.147a10.82 10.82 0 0 1-1.229-.618c-.193-.114-.38-.235-.565-.361l-.054-.037c-.027-.021-.053-.044-.079-.063a8.904 8.904 0 0 1-1.344-1.285c-.011-.013-.151-.19-.052-.06l-.048-.063-.085-.11a11.615 11.615 0 0 1-1.252-2.08c-.02-.04-.036-.086-.058-.125l.007.013a14.136 14.136 0 0 1-.669-1.919 10.309 10.309 0 0 1-.154-.699 1.409 1.409 0 0 0-.004-.062 5.21 5.21 0 0 1-.035-.697c.002-.046-.018-.238.015-.263l-.013.124c.005-.043.011-.087.018-.13l.023-.129a3.26 3.26 0 0 1 .09-.348l.001-.003-.013.022c.021-.033.036-.085.053-.122.045-.1.097-.197.153-.292.023-.038.048-.074.07-.111l.007-.011c.07-.085.138-.17.212-.252a4.25 4.25 0 0 1 .234-.234l.1-.09.007-.007v-.001a7.15 7.15 0 0 1 .55-.38c.189-.115.382-.222.58-.32l.114-.059.062-.025c.089-.038.178-.074.268-.109l.012.003c.03-.011.058-.023.089-.032l.064-.015a1.41 1.41 0 0 1 .241-.097l.019-.005a1.34 1.34 0 0 1 .217-.087c.029-.01.056-.015.085-.021.028-.01.056-.022.086-.03.07-.022.139-.035.207-.045a10.43 10.43 0 0 1 1.014-.217l.053-.007c.269-.038.539-.067.809-.089 1.015-.083 2.036-.07 3.053-.022 1.946.093 3.892.26 5.83.465l.33.036c-.263-.031.122.014.188.021a88.165 88.165 0 0 1 2.199.277c.95.132 1.898.279 2.844.444 1.898.332 3.785.736 5.647 1.232 1.833.487 3.682 1.033 5.44 1.75l.057.023.172.068.308.123a33.84 33.84 0 0 1 1.953.848c.865.407 1.713.858 2.52 1.374.18.116.36.234.536.356l.139.098.006.004c.095.072.191.142.286.215a13.988 13.988 0 0 1 2.114 2.002c.045.053.266.333.084.097.13.17.267.334.395.505a16.785 16.785 0 0 1 1.65 2.7 19.063 19.063 0 0 1 .197.413c0 .073.102.23.13.297.04.09.077.182.114.273a20.799 20.799 0 0 1 .99 3.107Z"/><path fill="#1A1A1A" d="M64.171 71.191c-.184-.12-.06-.042 0 0ZM36.633 57.758l.002.005a.507.507 0 0 0-.002-.005Zm35.563-2.18.007.005c-.011-.018-.127-.127-.084-.059l.052.04.025.014ZM43.714 98.483c-.047-.038-.033-.026 0 0ZM74.36 92.41c.05-.07.118-.17 0 0Zm2.302-6.4v-.003l.005-.052.001-.05-.008.116.002-.011Zm-5.715 9.977.005-.005a1.466 1.466 0 0 0-.005.005Z"/></svg>