<svg xmlns="http://www.w3.org/2000/svg" width="150" height="34" fill="none"><g fill="#1A1A1A" clip-path="url(#a)"><path fill-rule="evenodd" d="M12.784 23.8a4.267 4.267 0 0 1-3.013-1.245 4.244 4.244 0 0 1-1.248-3.005V0H0v19.55C0 26.591 5.724 32.3 12.784 32.3h9.375v-8.5h-9.375ZM38.352 8.5a7.688 7.688 0 0 0-5.424 2.24 7.65 7.65 0 0 0-2.246 5.41 7.632 7.632 0 0 0 2.246 5.41 7.674 7.674 0 0 0 5.424 2.24 7.681 7.681 0 0 0 5.424-2.24 7.64 7.64 0 0 0 0-10.82 7.681 7.681 0 0 0-5.424-2.24ZM22.16 16.15C22.16 7.231 29.41 0 38.352 0c8.943 0 16.194 7.23 16.194 16.15 0 8.919-7.25 16.15-16.194 16.15-8.943 0-16.193-7.231-16.193-16.15ZM130.398 8.5a7.68 7.68 0 0 0-5.424 2.24 7.638 7.638 0 0 0 0 10.82 7.683 7.683 0 0 0 10.848 0 7.641 7.641 0 0 0 0-10.82 7.683 7.683 0 0 0-5.424-2.24Zm-16.193 7.65c0-8.919 7.25-16.15 16.193-16.15 8.943 0 16.193 7.23 16.193 16.15 0 8.919-7.25 16.15-16.193 16.15-8.943 0-16.193-7.231-16.193-16.15ZM72.443 0C63.5 0 56.25 7.23 56.25 16.15c0 8.919 7.25 16.15 16.193 16.15h23.864a16.22 16.22 0 0 0 4.819-.728L105.682 34l4.916-9.183a16.128 16.128 0 0 0 1.902-7.595V16.15C112.5 7.231 105.25 0 96.307 0H72.443Zm31.534 16.15a7.641 7.641 0 0 0-2.246-5.41 7.683 7.683 0 0 0-5.424-2.24H72.443a7.688 7.688 0 0 0-5.424 2.24 7.649 7.649 0 0 0-2.246 5.41 7.632 7.632 0 0 0 2.246 5.41 7.673 7.673 0 0 0 5.424 2.24h23.864a7.682 7.682 0 0 0 5.403-2.22 7.64 7.64 0 0 0 2.267-5.37v-.06Z" clip-rule="evenodd"/><path d="M150 2.125a2.124 2.124 0 0 1-2.131 2.125 2.124 2.124 0 1 1 0-4.25A2.124 2.124 0 0 1 150 2.125Z"/></g><defs><clipPath id="a"><path fill="#fff" d="M0 0h150v34H0z"/></clipPath></defs></svg>