<svg xmlns="http://www.w3.org/2000/svg" width="1368" height="1369" fill="none"><path fill="#1A1A1A" d="M933.249 435.081c-63.799-63.833-151.923-103.328-249.244-103.328-97.316 0-185.446 39.495-249.238 103.328-63.791 63.838-103.259 152.032-103.259 249.419s39.468 185.575 103.259 249.42c63.792 63.833 151.922 103.33 249.238 103.33 97.321 0 185.445-39.497 249.244-103.33 36.788-36.827 65.476-81.737 83.191-131.852h341.49c6.62-38.206 10.07-77.479 10.07-117.569 0-188.981-76.57-360.106-200.36-483.988C1043.85 76.627 872.854 0 684.005 0 495.162 0 324.156 76.629 200.364 200.511 76.577 324.394 0 495.519 0 684.499c0 188.982 76.579 360.121 200.364 483.991C324.156 1292.37 495.163 1369 684.005 1369c188.849 0 359.855-76.63 483.635-200.51 74.66-74.69 132.1-166.59 165.99-269.205h-255.12c-20.68 37.967-46.69 72.624-77 102.965-81.25 81.32-193.532 131.62-317.505 131.62-123.989 0-236.255-50.31-317.519-131.62-81.258-81.332-131.528-193.671-131.528-317.753 0-124.073 50.27-236.42 131.528-317.743 81.264-81.318 193.529-131.63 317.519-131.63 123.971 0 236.255 50.312 317.505 131.63 54.64 54.664 95.24 123.341 116.02 200.18h-101.09c-17.715-50.11-46.402-95.033-83.191-131.853ZM767.116 767.677c-21.258 21.273-50.666 34.44-83.111 34.44-32.457 0-61.845-13.167-83.115-34.44-21.264-21.285-34.422-50.689-34.422-83.177 0-32.48 13.158-61.891 34.422-83.17 21.27-21.279 50.658-34.453 83.115-34.453 32.445 0 61.851 13.174 83.111 34.453 21.256 21.279 34.415 50.69 34.415 83.17 0 32.488-13.158 61.892-34.415 83.177Z"/></svg>