<svg xmlns="http://www.w3.org/2000/svg" width="183" height="34" fill="none"><g fill="#1A1A1A" clip-path="url(#a)"><path d="M17.023 0a17.035 17.035 0 0 1 13.619 6.8H17.023a10.221 10.221 0 0 0-7.222 2.987A10.193 10.193 0 0 0 6.809 17h10.214l14.394-9.079a16.993 16.993 0 0 1 2.25 5.511L27.237 17h6.81l-.005.422a16.99 16.99 0 0 1-4.981 11.6A17.036 17.036 0 0 1 17.023 34a17.036 17.036 0 0 1-13.618-6.8h13.618c2.71 0 5.307-1.075 7.223-2.987a10.194 10.194 0 0 0 2.979-6.707l.012-.506H17.023L2.63 26.077a16.996 16.996 0 0 1-2.25-5.511L6.81 17H0c0-4.509 1.793-8.833 4.986-12.021A17.036 17.036 0 0 1 17.023 0ZM78.54 25.877c.801 1.498 2.345 2.441 4.336 2.441 1.99 0 3.534-.943 4.334-2.441h2.994c-.99 2.993-3.74 4.994-7.328 4.995-3.589 0-6.339-2.002-7.33-4.995h2.995Z"/><path fill-rule="evenodd" d="M122.145 9.996c4.562 0 7.758 3.134 7.758 7.632 0 4.759-3.545 7.458-7.294 7.458-2.324 0-4.3-1.045-5.346-2.902v8.647h-2.761V17.657c0-4.672 3.197-7.66 7.643-7.66Zm.028 2.553c-2.934 0-4.91 2.09-4.91 4.992 0 2.901 1.976 4.99 4.91 4.99 2.964 0 4.941-2.088 4.941-4.99s-1.977-4.992-4.941-4.992ZM66.44 9.996c4.533 0 7.73 3.192 7.73 7.545 0 4.352-3.197 7.545-7.73 7.545s-7.73-3.193-7.73-7.545c.001-4.353 3.197-7.545 7.73-7.545Zm0 2.553c-2.963 0-4.94 2.09-4.94 4.992 0 2.901 1.977 4.99 4.94 4.99 2.964 0 4.94-2.088 4.94-4.99s-1.976-4.992-4.94-4.992Zm16.742-2.546h7.508v2.465h-1.936c1.173 1.313 1.851 3.07 1.851 5.073 0 4.352-3.196 7.545-7.729 7.545-4.533 0-7.73-3.193-7.73-7.545 0-4.353 3.197-7.545 7.73-7.545.103 0 .205.003.306.007Zm-.306 2.546c-2.964 0-4.94 2.09-4.94 4.992 0 2.901 1.976 4.99 4.94 4.99 2.964 0 4.94-2.089 4.94-4.99 0-2.902-1.976-4.991-4.94-4.992ZM99.31 9.996c4.532 0 7.729 3.192 7.729 7.545 0 4.352-3.196 7.545-7.73 7.545-4.533 0-7.729-3.193-7.729-7.545 0-4.353 3.196-7.545 7.73-7.545Zm0 2.553c-2.964 0-4.94 2.09-4.94 4.992 0 2.901 1.976 4.99 4.94 4.99 2.963 0 4.94-2.088 4.94-4.99-.001-2.902-1.977-4.992-4.94-4.992Z" clip-rule="evenodd"/><path d="M136.881 9.996c3.429 0 5.55 1.945 5.608 4.411h-2.732c-.087-1.102-1.103-1.916-2.847-1.916-1.83 0-2.877.872-2.877 2.003 0 1.364 1.511 1.509 3.283 1.74 2.499.32 5.55.784 5.551 4.063 0 2.902-2.354 4.789-5.957 4.79-3.603 0-5.87-1.917-5.957-4.528h2.789c.058 1.19 1.163 2.031 3.168 2.031 2.092 0 3.167-.9 3.167-2.031 0-1.364-1.511-1.539-3.312-1.77-2.499-.32-5.522-.784-5.522-4.063 0-2.815 2.209-4.73 5.638-4.73Zm10.356 7.864c0 3.105 1.715 4.672 4.33 4.672s4.33-1.567 4.33-4.672v-7.487h2.76v7.487c0 4.759-2.847 7.225-7.09 7.225-4.242 0-7.09-2.437-7.09-7.226v-7.486h2.76v7.487ZM47.224 21.98h10.664v2.729H44.26V5.73h2.964v16.25Zm64.655 2.729h-2.76V10.373h2.76v14.336Zm64.958-14.713c3.371 0 5.928 2.031 5.928 6.413v8.3h-2.761v-8.3c0-2.67-1.423-3.86-3.428-3.86-1.947 0-3.401 1.248-3.401 3.86v8.3h-2.76v-8.3c0-2.611-1.482-3.86-3.428-3.86-2.006 0-3.43 1.19-3.43 3.86v8.3h-2.76v-8.3c0-4.382 2.558-6.413 5.928-6.413 2.208 0 4.068.987 5.055 2.844.988-1.857 2.819-2.844 5.057-2.844ZM110.484 4.25c1.104 0 1.918.812 1.919 1.915 0 1.103-.815 1.945-1.919 1.945s-1.918-.842-1.918-1.945c0-1.103.814-1.915 1.918-1.915Z"/></g><defs><clipPath id="a"><path fill="#fff" d="M0 0h183v34H0z"/></clipPath></defs></svg>