<svg xmlns="http://www.w3.org/2000/svg" width="189" height="34" fill="none"><g fill="#1A1A1A" clip-path="url(#a)"><path fill-rule="evenodd" d="M17.027 0c6.365 0 9.548 0 11.919 1.366a10.21 10.21 0 0 1 3.74 3.734c1.368 2.367 1.368 5.545 1.368 11.9s0 9.533-1.368 11.9a10.21 10.21 0 0 1-3.74 3.734C26.576 34 23.392 34 17.027 34s-9.548 0-11.919-1.366a10.21 10.21 0 0 1-3.74-3.734C0 26.533 0 23.355 0 17S0 7.467 1.368 5.1a10.21 10.21 0 0 1 3.74-3.734C7.478 0 10.662 0 17.027 0Zm1.703 3.4C11.207 3.4 5.108 9.489 5.108 17c0 7.511 6.099 13.6 13.622 13.6S32.35 24.511 32.35 17c0-7.511-6.098-13.6-13.621-13.6Z" clip-rule="evenodd"/><path d="M30.648 17c0 4.694-3.811 8.5-8.513 8.5S13.62 21.694 13.62 17s3.812-8.5 8.514-8.5c4.701 0 8.513 3.806 8.513 8.5Zm151.996-7.43c1.904 0 3.435.584 4.592 1.751 1.175 1.149 1.764 2.76 1.764 4.836v9.033h-3.92v-8.505c0-1.204-.308-2.121-.924-2.751-.616-.649-1.456-.973-2.52-.973s-1.913.324-2.548.973c-.616.63-.923 1.547-.923 2.751v8.505h-3.921v-8.505c0-1.204-.307-2.121-.924-2.751-.615-.649-1.455-.973-2.52-.973-1.082 0-1.941.324-2.575.973-.616.63-.925 1.547-.925 2.751v8.505h-3.919V9.793h3.919v1.862a5.241 5.241 0 0 1 1.933-1.529 6.202 6.202 0 0 1 2.632-.556c1.213 0 2.296.26 3.247.778.952.5 1.69 1.223 2.212 2.168.504-.89 1.232-1.602 2.184-2.14a6.372 6.372 0 0 1 3.136-.806Zm-22.15.222v15.397h-3.948v-1.945c-.504.666-1.166 1.195-1.988 1.584-.802.37-1.68.556-2.631.556-1.214 0-2.287-.25-3.22-.75-.933-.52-1.671-1.27-2.212-2.252-.523-1-.784-2.186-.784-3.558V9.793h3.92v8.477c0 1.223.308 2.168.923 2.835.617.648 1.457.972 2.52.972 1.083 0 1.933-.324 2.548-.973.617-.667.924-1.612.924-2.834V9.792h3.948ZM137.51 25.44c-1.269 0-2.408-.223-3.416-.668-1.008-.463-1.81-1.084-2.408-1.862a4.722 4.722 0 0 1-.952-2.585h3.948c.075.593.364 1.084.868 1.473.522.39 1.167.584 1.932.584.747 0 1.325-.148 1.736-.445.429-.296.644-.676.644-1.14 0-.5-.262-.87-.784-1.11-.504-.26-1.316-.538-2.436-.835-1.157-.278-2.109-.565-2.856-.861a5.081 5.081 0 0 1-1.904-1.362c-.523-.612-.784-1.436-.784-2.474 0-.852.243-1.63.729-2.334.503-.704 1.213-1.26 2.127-1.668.933-.407 2.026-.611 3.276-.611 1.848 0 3.322.463 4.424 1.39 1.101.907 1.708 2.14 1.82 3.696h-3.752c-.056-.611-.317-1.093-.784-1.445-.448-.37-1.055-.556-1.82-.556-.709 0-1.26.13-1.652.389-.374.26-.56.62-.56 1.084 0 .519.261.917.784 1.195.523.26 1.335.528 2.436.806 1.12.278 2.044.565 2.772.861a4.72 4.72 0 0 1 1.875 1.39c.542.612.822 1.427.841 2.446 0 .89-.252 1.686-.756 2.39-.486.704-1.195 1.26-2.128 1.668-.915.389-1.988.583-3.22.583Zm-20.012-13.425c.504-.704 1.194-1.287 2.072-1.75.896-.482 1.913-.723 3.051-.723 1.326 0 2.52.324 3.584.973 1.082.648 1.932 1.575 2.548 2.779.635 1.186.952 2.566.952 4.141 0 1.575-.317 2.974-.952 4.197-.616 1.204-1.466 2.14-2.548 2.807-1.064.667-2.258 1-3.584 1-1.138 0-2.146-.231-3.024-.695-.858-.463-1.558-1.046-2.099-1.75v9.532h-3.92V9.792h3.92v2.223Zm8.203 5.42c0-.926-.195-1.723-.588-2.39-.373-.686-.877-1.204-1.512-1.556a3.988 3.988 0 0 0-2.016-.529c-.709 0-1.381.186-2.015.556-.616.352-1.12.871-1.512 1.557-.374.685-.56 1.491-.56 2.418 0 .926.186 1.732.56 2.418.392.685.896 1.213 1.512 1.584a4.09 4.09 0 0 0 2.015.528 3.84 3.84 0 0 0 2.016-.556 4.004 4.004 0 0 0 1.512-1.584c.393-.686.588-1.501.588-2.446Zm-16.947-9.477c-.691 0-1.269-.213-1.736-.639a2.22 2.22 0 0 1-.672-1.64c0-.648.224-1.185.672-1.612.467-.444 1.045-.667 1.736-.667.691 0 1.26.223 1.708.667.467.427.7.964.7 1.612 0 .649-.233 1.195-.7 1.64-.448.426-1.017.64-1.708.64Zm1.932 1.835v15.396h-3.92V9.793h3.92ZM96.778 25.44c-1.494 0-2.838-.325-4.032-.974a7.332 7.332 0 0 1-2.829-2.807c-.671-1.204-1.007-2.593-1.007-4.168 0-1.575.345-2.965 1.035-4.17a7.277 7.277 0 0 1 2.885-2.778c1.213-.668 2.566-1.001 4.059-1.001 1.493 0 2.847.333 4.06 1a7.086 7.086 0 0 1 2.856 2.78c.71 1.204 1.064 2.594 1.064 4.169 0 1.575-.364 2.964-1.092 4.168a7.414 7.414 0 0 1-2.912 2.808c-1.213.648-2.575.972-4.087.972Zm0-3.392c.709 0 1.371-.166 1.987-.5.635-.352 1.139-.87 1.512-1.556s.561-1.52.561-2.501c0-1.464-.393-2.585-1.177-3.363-.765-.797-1.708-1.195-2.827-1.195-1.12 0-2.063.398-2.829 1.195-.746.778-1.119 1.899-1.119 3.363 0 1.463.364 2.593 1.091 3.39.747.778 1.68 1.168 2.8 1.168ZM79.903 25.44c-1.494 0-2.838-.325-4.032-.974a7.327 7.327 0 0 1-2.828-2.807c-.672-1.204-1.008-2.593-1.008-4.168 0-1.575.346-2.965 1.036-4.17a7.27 7.27 0 0 1 2.884-2.778c1.213-.668 2.567-1.001 4.06-1.001 1.493 0 2.846.333 4.06 1a7.088 7.088 0 0 1 2.856 2.78c.709 1.204 1.063 2.594 1.063 4.169 0 1.575-.363 2.964-1.091 4.168a7.418 7.418 0 0 1-2.913 2.808c-1.213.648-2.575.972-4.087.972Zm0-3.392a4.11 4.11 0 0 0 1.988-.5c.634-.352 1.138-.87 1.512-1.556.373-.686.56-1.52.56-2.501 0-1.464-.392-2.585-1.176-3.363-.766-.797-1.708-1.195-2.828-1.195-1.12 0-2.063.398-2.828 1.195-.747.778-1.12 1.899-1.12 3.363 0 1.463.364 2.593 1.092 3.39.747.778 1.68 1.168 2.8 1.168ZM63.03 25.44c-1.494 0-2.837-.325-4.032-.974a7.325 7.325 0 0 1-2.828-2.807c-.672-1.204-1.008-2.593-1.008-4.168 0-1.575.345-2.965 1.036-4.17a7.27 7.27 0 0 1 2.884-2.778c1.213-.668 2.566-1.001 4.06-1.001 1.493 0 2.846.333 4.06 1a7.082 7.082 0 0 1 2.855 2.78c.71 1.204 1.064 2.594 1.064 4.169 0 1.575-.364 2.964-1.092 4.168a7.416 7.416 0 0 1-2.911 2.808c-1.214.648-2.576.972-4.088.972Zm0-3.392a4.11 4.11 0 0 0 1.988-.5c.634-.352 1.138-.87 1.511-1.556.374-.686.56-1.52.56-2.501 0-1.464-.391-2.585-1.175-3.363-.766-.797-1.708-1.195-2.828-1.195-1.12 0-2.063.398-2.828 1.195-.747.778-1.12 1.899-1.12 3.363 0 1.463.364 2.593 1.092 3.39.747.778 1.68 1.168 2.8 1.168Zm-14.84.056h6.439v3.085h-10.36V5.79h3.92v16.314Z"/><path d="M83.709 26.086a9.3 9.3 0 0 0 .927-.432l.006-.004a8.757 8.757 0 0 0 3.229-2.976v3.055c-.087 4.113-3.46 7.42-7.607 7.42h-.417c-4.148 0-7.52-3.307-7.607-7.42h4.127a3.478 3.478 0 0 0 3.48 3.31h.417a3.48 3.48 0 0 0 3.445-2.953Z"/></g><defs><clipPath id="a"><path fill="#fff" d="M0 0h189v34H0z"/></clipPath></defs></svg>