<svg xmlns="http://www.w3.org/2000/svg" width="44" height="44" fill="none"><path fill="#1A1A1A" d="M42.57 13.767A9.135 9.135 0 0 0 41.008 2.72 9.388 9.388 0 0 0 29.84 1.18l-.846-.835a.52.52 0 0 0-.732 0L25.38 3.194a.522.522 0 0 0 0 .742l.841.83a9.203 9.203 0 0 0-1.013 6.217L5.182 32.67a.52.52 0 0 0 .016.724l2.083 2.053c-2.403 1.085-2.94 2.927-3.385 4.427-.487 1.718-.813 2.846-3.375 2.846a.52.52 0 0 0 0 1.042c3.346 0 3.872-1.823 4.38-3.592.435-1.507.888-3.062 3.177-3.93l1.927 1.907a.52.52 0 0 0 .714.016L32.656 18.37c.582.11 1.173.167 1.766.17a9.316 9.316 0 0 0 4.523-1.178l.852.839a.521.521 0 0 0 .732 0l2.882-2.862a.519.519 0 0 0 0-.742l-.84-.831ZM40.276 3.46a8.106 8.106 0 0 1 1.523 9.544L30.62 1.949a8.333 8.333 0 0 1 9.657 1.51Zm-29.89 33.593L6.288 33.01 25.76 11.915l5.953 5.888-21.328 19.25Zm22.299-19.757-6.422-6.347a8.188 8.188 0 0 1 .73-5.422l11.179 11.055a8.435 8.435 0 0 1-5.487.719v-.005Zm7.476-.214L26.487 3.566l2.143-2.12L42.305 14.97l-2.144 2.112Z"/></svg>