<svg xmlns="http://www.w3.org/2000/svg" width="196" height="34" fill="none"><g fill="#1A1A1A" clip-path="url(#a)"><path d="M28 20.4c0-5.008-4.066-9.067-9.08-9.067h-7.568V20.4h7.567v11.333H28V20.4Z"/><path d="M0 21.156c0 5.842 4.743 10.578 10.595 10.578h6.054v-9.067h-6.054a1.512 1.512 0 0 1-1.514-1.511V20.4H0v.756ZM18.919 0C30.203 0 39.35 9.133 39.35 20.4v11.333h-9.08V20.4c0-6.26-5.083-11.333-11.352-11.333h-8.324c-.836 0-1.514.676-1.514 1.51v.756H0v-.755C0 4.736 4.743 0 10.595 0h8.324Zm96.236 8.702c-.593 0-1.089-.2-1.491-.6-.401-.4-.602-.894-.602-1.484s.201-1.085.602-1.485c.402-.4.898-.6 1.491-.6.573 0 1.06.2 1.461.6.401.4.602.894.602 1.485 0 .59-.201 1.085-.602 1.484-.401.4-.888.6-1.461.6Zm1.604 2.084V26.52h-3.267V10.786h3.267Z"/><path fill-rule="evenodd" d="M125.578 11.272c-.956.495-1.71 1.104-2.264 1.827v-2.313h-3.267V34h3.267v-9.765c.592.723 1.357 1.332 2.293 1.827.936.476 2.005.714 3.209.714 1.376 0 2.627-.343 3.754-1.028 1.147-.704 2.044-1.675 2.695-2.912.649-1.257.973-2.675.973-4.255s-.324-2.979-.973-4.197c-.651-1.218-1.548-2.16-2.695-2.827-1.127-.685-2.378-1.028-3.754-1.028-1.204 0-2.283.248-3.238.743Zm6.648 4.511c.459.78.688 1.713.688 2.798s-.229 2.037-.688 2.855c-.439.819-1.031 1.447-1.776 1.885a4.627 4.627 0 0 1-2.35.628c-.822 0-1.605-.21-2.35-.628-.726-.419-1.318-1.028-1.777-1.827-.44-.819-.659-1.77-.659-2.856 0-1.085.219-2.027.659-2.827.459-.799 1.051-1.408 1.777-1.827a4.727 4.727 0 0 1 2.35-.628c.84 0 1.624.21 2.35.628.745.4 1.337 1 1.776 1.799Z" clip-rule="evenodd"/><path d="M144.197 26.776c-1.242 0-2.36-.219-3.353-.657-.974-.457-1.748-1.066-2.321-1.827a4.606 4.606 0 0 1-.918-2.599h3.382c.057.667.373 1.228.946 1.685.592.438 1.328.657 2.206.657.917 0 1.624-.172 2.121-.514.516-.362.774-.819.774-1.37 0-.59-.287-1.029-.86-1.314-.554-.286-1.442-.6-2.665-.942-1.184-.324-2.149-.638-2.895-.943a5.2 5.2 0 0 1-1.948-1.399c-.535-.628-.802-1.456-.802-2.484 0-.837.248-1.599.744-2.284.497-.704 1.204-1.256 2.121-1.656.936-.4 2.007-.6 3.21-.6 1.796 0 3.238.457 4.327 1.37 1.109.896 1.7 2.123 1.777 3.684h-3.267c-.058-.704-.344-1.266-.86-1.684-.516-.42-1.213-.629-2.092-.629-.859 0-1.518.162-1.977.486-.459.323-.688.752-.688 1.285 0 .418.153.77.459 1.056.306.286.678.514 1.118.685a40.39 40.39 0 0 0 1.948.6c1.147.304 2.083.619 2.808.942a5.077 5.077 0 0 1 1.92 1.37c.535.61.812 1.419.831 2.428 0 .894-.248 1.694-.744 2.398-.498.704-1.204 1.257-2.122 1.656-.897.4-1.957.6-3.18.6ZM192.818 11.3c-.974-.514-2.082-.77-3.323-.77a6.543 6.543 0 0 0-3.268.856c-1.013.552-1.757 1.304-2.235 2.256a5.472 5.472 0 0 0-2.293-2.313c-.993-.533-2.12-.8-3.382-.8a6.47 6.47 0 0 0-2.636.543 5.432 5.432 0 0 0-2.034 1.513v-1.799h-3.268V26.52h3.268v-8.794c0-1.409.353-2.485 1.06-3.227.726-.761 1.7-1.142 2.923-1.142 1.222 0 2.187.38 2.894 1.142.707.743 1.061 1.818 1.061 3.227v8.794h3.238v-8.794c0-1.409.354-2.485 1.06-3.227.726-.761 1.701-1.142 2.924-1.142 1.222 0 2.187.38 2.894 1.142.707.743 1.06 1.818 1.06 3.227v8.794H196v-9.28c0-1.428-.287-2.646-.86-3.655a5.47 5.47 0 0 0-2.322-2.284Zm-25.745 15.219V10.786h-3.267v8.766c0 1.408-.363 2.494-1.089 3.255-.707.742-1.671 1.114-2.894 1.114s-2.188-.372-2.895-1.114c-.707-.761-1.06-1.847-1.06-3.255v-8.766h-3.239v9.251c0 1.428.278 2.646.832 3.655.572 1.009 1.347 1.77 2.321 2.284.993.514 2.111.771 3.353.771a6.47 6.47 0 0 0 2.636-.542c.841-.381 1.519-.895 2.035-1.542v1.856h3.267Z"/><path fill-rule="evenodd" d="M99.029 25.777c1.204.666 2.551.999 4.041.999 1.51 0 2.885-.333 4.126-1a7.597 7.597 0 0 0 2.981-2.883c.726-1.238 1.089-2.656 1.089-4.255 0-1.599-.353-3.017-1.06-4.254a7.311 7.311 0 0 0-2.895-2.855c-1.223-.667-2.588-1-4.098-1-1.509 0-2.875.333-4.098 1a7.309 7.309 0 0 0-2.895 2.855c-.706 1.237-1.06 2.655-1.06 4.254 0 1.618.344 3.046 1.032 4.283a7.425 7.425 0 0 0 2.837 2.856Zm6.391-2.427c-.726.4-1.509.6-2.35.6-1.318 0-2.417-.458-3.296-1.371-.86-.933-1.29-2.247-1.29-3.94 0-1.143.211-2.104.631-2.885.42-.799.984-1.399 1.691-1.798.726-.4 1.509-.6 2.35-.6.841 0 1.624.2 2.35.6.726.4 1.308.999 1.748 1.798.44.78.659 1.742.659 2.884s-.229 2.113-.688 2.913c-.458.8-1.06 1.399-1.805 1.799Zm-23.596 2.463a7.422 7.422 0 0 1-2.904-2.892c-.687-1.237-1.031-2.665-1.031-4.283 0-1.599.353-3.017 1.06-4.254a7.31 7.31 0 0 1 2.895-2.855c1.222-.667 2.588-1 4.098-1 1.509 0 2.875.333 4.098 1a7.31 7.31 0 0 1 2.894 2.855c.707 1.237 1.06 2.655 1.06 4.254 0 1.6-.362 3.017-1.088 4.255a7.598 7.598 0 0 1-2.981 2.884 8.444 8.444 0 0 1-3.5.98c1.55.706 3.91 1.277 5.234 1.598.567.137.945.228.989.265h.002v3.257H80.747V28.62h6.86c-1.746-.393-4.115-1.681-5.783-2.807Zm3.974-1.864c.841 0 1.624-.2 2.35-.6.745-.4 1.347-.999 1.806-1.798.458-.8.688-1.77.688-2.913 0-1.142-.22-2.103-.66-2.884-.439-.799-1.022-1.399-1.748-1.798-.725-.4-1.509-.6-2.35-.6-.84 0-1.623.2-2.35.6-.707.4-1.27.999-1.69 1.798-.42.78-.63 1.742-.63 2.884 0 1.694.429 3.008 1.289 3.94.879.914 1.977 1.371 3.295 1.371Zm-21.312 1.828c1.204.666 2.55.999 4.04.999 1.51 0 2.886-.333 4.128-1a7.603 7.603 0 0 0 2.98-2.883c.726-1.238 1.089-2.656 1.089-4.255 0-1.599-.353-3.017-1.06-4.254a7.31 7.31 0 0 0-2.895-2.855c-1.223-.667-2.589-1-4.098-1-1.51 0-2.875.333-4.098 1a7.31 7.31 0 0 0-2.895 2.855c-.706 1.237-1.06 2.655-1.06 4.254 0 1.618.344 3.046 1.032 4.283a7.42 7.42 0 0 0 2.837 2.856Zm6.39-2.427c-.725.4-1.509.6-2.35.6-1.317 0-2.416-.458-3.295-1.371-.86-.933-1.29-2.247-1.29-3.94 0-1.143.21-2.104.631-2.885.42-.799.984-1.399 1.69-1.798.727-.4 1.51-.6 2.35-.6.841 0 1.625.2 2.35.6.727.4 1.31.999 1.749 1.798.44.78.66 1.742.66 2.884s-.23 2.113-.689 2.913c-.458.8-1.06 1.399-1.805 1.799Z" clip-rule="evenodd"/><path d="M53.212 23.892h6.735v2.627H49.945V6.675h3.267v17.217Z"/></g><defs><clipPath id="a"><path fill="#fff" d="M0 0h196v34H0z"/></clipPath></defs></svg>